<svg id="SvgjsSvg1224" width="288" height="288" xmlns="http://www.w3.org/2000/svg" version="1.1" xmlns:xlink="http://www.w3.org/1999/xlink" xmlns:svgjs="http://svgjs.com/svgjs"><defs id="SvgjsDefs1225"></defs><g id="SvgjsG1226"><svg xmlns="http://www.w3.org/2000/svg" viewBox="0 0 64 64" width="288" height="288"><path fill="#f0f4f7" d="M45.82,22.64V41A4.81,4.81,0,0,1,41,45.82H18.18v4.77H56V27.12H53.14a2.43,2.43,0,0,1-2.26-1.51l-.45-1.09a3,3,0,0,0-2.8-1.88Z" class="colorf0f4f7 svgShape"></path><path fill="#2563eb" d="M45.82,18.18v4.46h1.81a3,3,0,0,1,2.8,1.88l.45,1.09a2.43,2.43,0,0,0,2.26,1.51H56V23a4.81,4.81,0,0,0-4.82-4.82Z" class="color94d8e5 svgShape"></path><path fill="#e0e9ee" d="M53.42,27.12V51.18A4.81,4.81,0,0,1,48.6,56h2.58A4.81,4.81,0,0,0,56,51.18V27.12Z" class="colore0e9ee svgShape"></path><path fill="#2563eb" d="M48.6,18.18A4.81,4.81,0,0,1,53.42,23v4.12H56V23a4.81,4.81,0,0,0-4.82-4.82Z" class="color7bd1e0 svgShape"></path><path fill="#748a95" d="M18.18,50.59v.59A4.81,4.81,0,0,0,23,56H51.18A4.81,4.81,0,0,0,56,51.18v-.59Z" class="color748a95 svgShape"></path><path fill="#617880" d="M53.42,50.59v.59A4.81,4.81,0,0,1,48.6,56h2.58A4.81,4.81,0,0,0,56,51.18v-.59Z" class="color617880 svgShape"></path><path fill="#1e40af" d="M12.82,8A4.81,4.81,0,0,0,8,12.82v4.12H21.38a2.43,2.43,0,0,0,2.26-1.51l.45-1.09a3,3,0,0,1,2.8-1.88H37.45a3,3,0,0,1,2.8,1.88l.45,1.09A2.44,2.44,0,0,0,43,16.94h2.86V12.82A4.81,4.81,0,0,0,41,8Zm-1,3.69a1.25,1.25,0,1,1-1.25,1.25A1.25,1.25,0,0,1,11.85,11.69Zm4,0a1.25,1.25,0,1,1-1.25,1.25A1.25,1.25,0,0,1,15.84,11.69Zm4,0a1.25,1.25,0,1,1-1.25,1.25A1.25,1.25,0,0,1,19.83,11.69Z" class="colordd5891 svgShape"></path><path fill="#f0f4f7" d="M26.89,12.46a3,3,0,0,0-2.8,1.87l-.45,1.1a2.43,2.43,0,0,1-2.26,1.51H8V41a4.81,4.81,0,0,0,4.82,4.82H41A4.81,4.81,0,0,0,45.82,41V16.94H43a2.44,2.44,0,0,1-2.26-1.51l-.45-1.09a3,3,0,0,0-2.8-1.88Zm.51,9.13a8.59,8.59,0,0,1,1.52.13L30,23.53a7.44,7.44,0,0,1,2.15,1.24l2.12,0a8.83,8.83,0,0,1,1.51,2.63l-1,1.84a7.53,7.53,0,0,1,.1,1.25,7.3,7.3,0,0,1-.11,1.23l1,1.83a8.8,8.8,0,0,1-1.52,2.66l-2.11,0A7.65,7.65,0,0,1,30,37.5l-1.09,1.83a8.62,8.62,0,0,1-1.53.14,7.76,7.76,0,0,1-1.52-.15L24.79,37.5a7.65,7.65,0,0,1-2.13-1.22l-2.11,0A8.87,8.87,0,0,1,19,33.6l1-1.84a7.3,7.3,0,0,1-.11-1.23,7.21,7.21,0,0,1,.11-1.23l-1-1.84a9.06,9.06,0,0,1,1.51-2.65l2.12,0a7.38,7.38,0,0,1,2.13-1.21l1.09-1.83A8.6,8.6,0,0,1,27.4,21.59Z" class="colorf0f4f7 svgShape"></path><path fill="#e0e9ee" d="M43.24,16.94V41a4.81,4.81,0,0,1-4.82,4.82H41A4.81,4.81,0,0,0,45.82,41V16.94Z" class="colore0e9ee svgShape"></path><path fill="#1e40af" d="M38.42,8a4.81,4.81,0,0,1,4.82,4.82v4.12h2.58V12.82A4.81,4.81,0,0,0,41,8Z" class="colord9387c svgShape"></path><path fill="#3b82f6" d="M27.4,21.59a8.6,8.6,0,0,0-1.52.14l-1.09,1.83a7.38,7.38,0,0,0-2.13,1.21l-2.12,0A9.06,9.06,0,0,0,19,27.46l1,1.84a7.21,7.21,0,0,0-.11,1.23,7.3,7.3,0,0,0,.11,1.23L19,33.6a8.87,8.87,0,0,0,1.52,2.65l2.11,0a7.65,7.65,0,0,0,2.13,1.22l1.09,1.82a7.76,7.76,0,0,0,1.52.15,8.62,8.62,0,0,0,1.53-.14L30,37.5a7.65,7.65,0,0,0,2.13-1.22l2.11,0a8.8,8.8,0,0,0,1.52-2.66l-1-1.83a7.3,7.3,0,0,0,.11-1.23,7.53,7.53,0,0,0-.1-1.25l1-1.84a8.83,8.83,0,0,0-1.51-2.63l-2.12,0A7.44,7.44,0,0,0,30,23.53l-1.09-1.81A8.59,8.59,0,0,0,27.4,21.59Zm0,5.41a3.53,3.53,0,1,1-3.52,3.53A3.53,3.53,0,0,1,27.4,27Z" class="colorf6e782 svgShape"></path><circle cx="27.4" cy="30.53" r="3.53" fill="#f0f4f7" class="colorf0f4f7 svgShape"></circle><path fill="#00244c" d="M12.82,46.82h4.36v4.36A5.83,5.83,0,0,0,23,57H51.18A5.83,5.83,0,0,0,57,51.18V23a5.83,5.83,0,0,0-5.82-5.82H46.82V12.82A5.83,5.83,0,0,0,41,7H12.82A5.83,5.83,0,0,0,7,12.82V41A5.83,5.83,0,0,0,12.82,46.82ZM9,41V17.94H44.82V41A3.83,3.83,0,0,1,41,44.82H12.82A3.83,3.83,0,0,1,9,41ZM24.5,15.94c.2-.43.27-.62.52-1.23a2,2,0,0,1,1.87-1.25H37.45a2,2,0,0,1,1.87,1.25c.24.57.32.79.52,1.23Zm22.32,7.7h.81a2,2,0,0,1,1.88,1.26c.23.56.31.78.51,1.22h-3.2ZM41,46.82a5.83,5.83,0,0,0,5.71-4.71h5.56a1,1,0,0,0,0-2H46.82V35.55h5.45a1,1,0,0,0,0-2H46.82V28.12H55V49.59H19.18V46.82ZM51.18,55H23a3.82,3.82,0,0,1-3.78-3.41H55A3.82,3.82,0,0,1,51.18,55Zm0-35.82A3.83,3.83,0,0,1,55,23v3.12H53.14a1.45,1.45,0,0,1-1.34-.89l-.44-1.09a4,4,0,0,0-3.73-2.5h-.81V19.18ZM12.82,9H41a3.83,3.83,0,0,1,3.82,3.82v3.12H43a1.45,1.45,0,0,1-1.34-.89L41.17,14a4,4,0,0,0-3.72-2.5H26.89A4,4,0,0,0,23.17,14l-.45,1.09a1.44,1.44,0,0,1-1.34.89H9V12.82A3.82,3.82,0,0,1,12.82,9Z" class="color00244c svgShape"></path><circle cx="11.85" cy="12.94" r="1.25" fill="#00244c" class="color00244c svgShape"></circle><circle cx="15.84" cy="12.94" r="1.25" fill="#00244c" class="color00244c svgShape"></circle><circle cx="19.83" cy="12.94" r="1.25" fill="#00244c" class="color00244c svgShape"></circle><path fill="#00244c" d="M18.09,33.94a10,10,0,0,0,1.69,3,1,1,0,0,0,.75.36l1.78,0a8.36,8.36,0,0,0,1.79,1L25,39.84a1,1,0,0,0,.67.47,10.78,10.78,0,0,0,1.72.16,9.69,9.69,0,0,0,1.7-.16,1,1,0,0,0,.68-.47l.92-1.54a8.61,8.61,0,0,0,1.79-1l1.78,0a1,1,0,0,0,.75-.36,10.09,10.09,0,0,0,1.69-3,1,1,0,0,0-.07-.83l-.85-1.54a8.93,8.93,0,0,0,.07-1,7.55,7.55,0,0,0-.07-1.06l.87-1.54a1,1,0,0,0,.06-.84,10,10,0,0,0-1.68-2.92,1,1,0,0,0-.76-.36l-1.77,0a8.34,8.34,0,0,0-1.83-1.05l-.91-1.52a1,1,0,0,0-.68-.48,10.7,10.7,0,0,0-1.69-.14h0a9.67,9.67,0,0,0-1.69.16,1,1,0,0,0-.68.47l-.92,1.53a8.85,8.85,0,0,0-1.79,1l-1.78,0a1,1,0,0,0-.76.36,9.94,9.94,0,0,0-1.68,2.95,1,1,0,0,0,.06.83L19,29.49a9,9,0,0,0-.07,1.05,7.13,7.13,0,0,0,.07,1l-.85,1.54A1,1,0,0,0,18.09,33.94ZM21,25.8l1.64,0a1,1,0,0,0,.62-.22,6.58,6.58,0,0,1,1.83-1.06.89.89,0,0,0,.51-.42l.85-1.42a7.11,7.11,0,0,1,.92-.06c.3,0,.6,0,.9.05l.84,1.41a1.05,1.05,0,0,0,.51.42,6.25,6.25,0,0,1,1.87,1.08,1,1,0,0,0,.62.22l1.64,0a7.88,7.88,0,0,1,.9,1.57l-.8,1.43a1,1,0,0,0-.11.65,6.53,6.53,0,0,1,.09,1.07,6.14,6.14,0,0,1-.1,1.06,1,1,0,0,0,.11.67l.8,1.42a8.38,8.38,0,0,1-.91,1.59l-1.64,0a1.1,1.1,0,0,0-.62.23,6.54,6.54,0,0,1-1.83,1.05.94.94,0,0,0-.51.43l-.86,1.42a6.77,6.77,0,0,1-.89.06,7.26,7.26,0,0,1-.93-.06L25.64,37a.94.94,0,0,0-.51-.43,6.54,6.54,0,0,1-1.83-1.05,1.07,1.07,0,0,0-.62-.23l-1.64,0a8.38,8.38,0,0,1-.91-1.59l.79-1.42a1,1,0,0,0,.12-.66,5.67,5.67,0,0,1,0-2.12,1,1,0,0,0-.12-.66l-.79-1.42A7.36,7.36,0,0,1,21,25.8Z" class="color00244c svgShape"></path><path fill="#00244c" d="M27.4 35.06a4.53 4.53 0 10-4.52-4.53A4.54 4.54 0 0027.4 35.06zm0-7.06a2.53 2.53 0 11-2.52 2.53A2.53 2.53 0 0127.4 28zM11.29 48.08a1 1 0 00-1 1v3.74a1 1 0 001 1H15a1 1 0 100-2H12.29V49.08A1 1 0 0011.29 48.08zM52.71 15.92a1 1 0 001-1V11.18a1 1 0 00-1-1H49a1 1 0 000 2h2.74v2.74A1 1 0 0052.71 15.92zM52.27 30.26H49.7a1 1 0 000 2h2.57a1 1 0 000-2zM52.27 36.83H49.7a1 1 0 000 2h2.57a1 1 0 000-2zM49.7 45.39h2.57a1 1 0 000-2H49.7a1 1 0 000 2z" class="color00244c svgShape"></path></svg></g></svg>