<svg id="SvgjsSvg1086" width="288" height="288" xmlns="http://www.w3.org/2000/svg" version="1.1" xmlns:xlink="http://www.w3.org/1999/xlink" xmlns:svgjs="http://svgjs.com/svgjs"><defs id="SvgjsDefs1087"></defs><g id="SvgjsG1088"><svg xmlns="http://www.w3.org/2000/svg" viewBox="0 0 512 512" width="288" height="288"><circle cx="254.8" cy="210.61" r="7.5"></circle><circle cx="299.8" cy="210.61" r="7.5"></circle><circle cx="344.8" cy="210.61" r="7.5"></circle><path fill="#c8c5cc" d="M412.44,143.61H187.16V94.35a30,30,0,0,1,30-30H382.44a30,30,0,0,1,30,30Z" class="colorc8c5cc svgShape"></path><path fill="#787681" d="M388,504.5H211.6a30,30,0,0,1-29.9-27.61L169,317.74c-.07-.79-.1-1.59-.1-2.38V158.61a30,30,0,0,1,30-30H400.7a30,30,0,0,1,30,30V315.36c0,.79,0,1.59-.1,2.38L417.9,476.89A30,30,0,0,1,388,504.5Z" class="color787681 svgShape"></path><path fill="#57565c" d="M400.7,128.61h-30a30,30,0,0,1,30,30V315.36c0,.79,0,1.59-.1,2.38L387.9,476.89A30,30,0,0,1,358,504.5h30a30,30,0,0,0,29.9-27.61l12.7-159.15c.07-.79.1-1.59.1-2.38V158.61A30,30,0,0,0,400.7,128.61Z" class="color57565c svgShape"></path><path fill="#e1e1e3" d="M241.3,7.5h117a15,15,0,0,1,15,15V128.61a0,0,0,0,1,0,0h-147a0,0,0,0,1,0,0V22.5A15,15,0,0,1,241.3,7.5Z" class="colore1e1e3 svgShape"></path><rect width="202" height="104" x="198.8" y="158.61" fill="#52bbe9" rx="4" class="color52bbe9 svgShape"></rect><path fill="#1cabe1" d="M396.8,158.61h-30a4,4,0,0,1,4,4v96a4,4,0,0,1-4,4h30a4,4,0,0,0,4-4v-96A4,4,0,0,0,396.8,158.61Z" class="color1cabe1 svgShape"></path><rect width="38" height="30" x="213.8" y="323.05" fill="#ffffff" rx="3" class="colorfff svgShape"></rect><rect width="38" height="30" x="347.8" y="323.05" fill="#ffffff" rx="3" class="colorfff svgShape"></rect><rect width="38" height="30" x="280.8" y="323.05" fill="#ffffff" rx="3" class="colorfff svgShape"></rect><rect width="38" height="30" x="213.8" y="383.05" fill="#ffffff" rx="3" class="colorfff svgShape"></rect><rect width="38" height="30" x="347.8" y="383.05" fill="#ffffff" rx="3" class="colorfff svgShape"></rect><rect width="38" height="30" x="280.8" y="383.05" fill="#ffffff" rx="3" class="colorfff svgShape"></rect><rect width="38" height="30" x="213.8" y="443.05" fill="#ffffff" rx="3" class="colorfff svgShape"></rect><rect width="38" height="30" x="347.8" y="443.05" fill="#19ac66" rx="3" class="color19ac66 svgShape"></rect><path fill="#138b4c" d="M382.8,443.05h-10a3,3,0,0,1,3,3v24a3,3,0,0,1-3,3h10a3,3,0,0,0,3-3v-24A3,3,0,0,0,382.8,443.05Z" class="color138b4c svgShape"></path><rect width="38" height="30" x="280.8" y="443.05" fill="#eb304a" rx="3" class="coloreb304a svgShape"></rect><path fill="#e4222e" d="M315.8,443.05h-10a3,3,0,0,1,3,3v24a3,3,0,0,1-3,3h10a3,3,0,0,0,3-3v-24A3,3,0,0,0,315.8,443.05Z" class="colore4222e svgShape"></path><path fill="#e1e1e3" d="M248.8 443.05h-10a3 3 0 0 1 3 3v24a3 3 0 0 1-3 3h10a3 3 0 0 0 3-3v-24A3 3 0 0 0 248.8 443.05zM382.8 383.05h-10a3 3 0 0 1 3 3v24a3 3 0 0 1-3 3h10a3 3 0 0 0 3-3v-24A3 3 0 0 0 382.8 383.05zM315.8 383.05h-10a3 3 0 0 1 3 3v24a3 3 0 0 1-3 3h10a3 3 0 0 0 3-3v-24A3 3 0 0 0 315.8 383.05zM248.8 383.05h-10a3 3 0 0 1 3 3v24a3 3 0 0 1-3 3h10a3 3 0 0 0 3-3v-24A3 3 0 0 0 248.8 383.05zM382.8 323.05h-10a3 3 0 0 1 3 3v24a3 3 0 0 1-3 3h10a3 3 0 0 0 3-3v-24A3 3 0 0 0 382.8 323.05zM315.8 323.05h-10a3 3 0 0 1 3 3v24a3 3 0 0 1-3 3h10a3 3 0 0 0 3-3v-24A3 3 0 0 0 315.8 323.05zM248.8 323.05h-10a3 3 0 0 1 3 3v24a3 3 0 0 1-3 3h10a3 3 0 0 0 3-3v-24A3 3 0 0 0 248.8 323.05z" class="colore1e1e3 svgShape"></path><path fill="#1e40af" d="M153.76,268.1c-20.92-11.27-38.47-26.45-51-44.23C88.71,204,81.3,181.4,81.3,158.4V120.48a176.46,176.46,0,0,0,48.07-19.19,176.24,176.24,0,0,0,24.15-16.92,164.33,164.33,0,0,0,31.59,21.49,164.49,164.49,0,0,0,41.11,14.91V158.4c0,23-7.41,45.64-21.42,65.47C192.23,241.65,174.68,256.83,153.76,268.1Z" class="colorfed947 svgShape"></path><path fill="#1e40af" d="M185.11,105.86a164.33,164.33,0,0,1-31.59-21.49q-6.14,5.11-12.71,9.65a165.09,165.09,0,0,0,19.3,11.84,164.49,164.49,0,0,0,41.11,14.91V158.4c0,23-7.41,45.64-21.42,65.47a144,144,0,0,1-38.54,36.75q6,4,12.5,7.48c20.92-11.27,38.47-26.45,51-44.23,14-19.83,21.42-42.47,21.42-65.47V120.77A164.49,164.49,0,0,1,185.11,105.86Z" class="colorfecc30 svgShape"></path><path fill="#3c3b41" d="M299.8,218a7.5,7.5,0,1,0-7.5-7.5A7.5,7.5,0,0,0,299.8,218ZM343.12,59.93H256.48a7.5,7.5,0,0,0,0,15h86.64a7.5,7.5,0,0,0,0-15ZM254.8,218a7.5,7.5,0,1,0-7.5-7.5A7.5,7.5,0,0,0,254.8,218Zm131,66h-38a7.5,7.5,0,0,0,0,15h38a7.5,7.5,0,0,0,0-15ZM191.63,149.15a7.5,7.5,0,0,0-10.61,0L142.9,187.26l-16.41-16.4a7.5,7.5,0,0,0-10.6,10.6l21.71,21.71a7.48,7.48,0,0,0,10.6,0l43.43-43.42A7.49,7.49,0,0,0,191.63,149.15ZM343.12,29.93H256.48a7.5,7.5,0,0,0,0,15h86.64a7.5,7.5,0,0,0,0-15Zm0,60H256.48a7.5,7.5,0,0,0,0,15h86.64a7.5,7.5,0,0,0,0-15Zm76.82,36.44V94.28a37.55,37.55,0,0,0-37.5-37.5H380.8V22.43A22.53,22.53,0,0,0,358.3-.07h-117a22.52,22.52,0,0,0-22.5,22.5V56.78h-1.64a37.54,37.54,0,0,0-37.5,37.32,157.4,157.4,0,0,1-21.23-15.47,7.48,7.48,0,0,0-9.71-.09,169.38,169.38,0,0,1-23.13,16.2,169,169,0,0,1-46,18.37,7.49,7.49,0,0,0-5.76,7.3v37.92c0,24.56,7.88,48.69,22.79,69.8,13.17,18.63,31.71,34.71,53.61,46.5a7.47,7.47,0,0,0,7.11,0q2.07-1.11,4.09-2.27v42.93c0,1.06,0,2.08.12,3l12.7,159.14a37.69,37.69,0,0,0,37.38,34.52H388a37.68,37.68,0,0,0,37.37-34.51l12.7-159.09c.08-1,.13-2,.13-3V158.54A37.5,37.5,0,0,0,419.94,126.37ZM380.8,71.78h1.64a22.53,22.53,0,0,1,22.5,22.5v27a37.27,37.27,0,0,0-4.24-.25H380.8Zm-147-49.35a7.5,7.5,0,0,1,7.5-7.5h117a7.51,7.51,0,0,1,7.5,7.5V121h-132ZM233.44,166H393.3v89h-187V234.27c1.6-2,3.15-4.06,4.62-6.14A121.66,121.66,0,0,0,233.44,166ZM194.66,94.28a22.52,22.52,0,0,1,22.5-22.5h1.64v39.33a156.28,156.28,0,0,1-24.14-9Zm-40.9,165.17c-18.32-10.48-33.79-24.24-44.92-40-13.11-18.56-20-39.7-20-61.14V126.24a184.57,184.57,0,0,0,44.34-18.53A185.12,185.12,0,0,0,153.43,94a171.55,171.55,0,0,0,28.21,18.45c.59.31,1.19.6,1.78.9a8.06,8.06,0,0,0,.83.42,172.16,172.16,0,0,0,34.47,12.87v31.7c0,21.44-6.94,42.58-20.05,61.14C187.54,235.21,172.07,249,153.76,259.45ZM423.2,315.29c0,.61,0,1.19-.08,1.78l-12.7,159.15A22.61,22.61,0,0,1,388,496.93H211.6a22.62,22.62,0,0,1-22.43-20.71L176.47,317c-.05-.52-.07-1.09-.07-1.71V262.66a161.59,161.59,0,0,0,14.9-12.23v12.11a7.5,7.5,0,0,0,7.5,7.5h202a7.5,7.5,0,0,0,7.5-7.5v-104a7.5,7.5,0,0,0-7.5-7.5H233.72V136h167a22.53,22.53,0,0,1,22.5,22.5ZM344.8,218a7.5,7.5,0,1,0-7.5-7.5A7.5,7.5,0,0,0,344.8,218Zm-26,97.44h-38a7.5,7.5,0,0,0-7.5,7.5v30a7.5,7.5,0,0,0,7.5,7.5h38a7.5,7.5,0,0,0,7.5-7.5V323A7.5,7.5,0,0,0,318.8,315.48Zm-7.5,30h-23v-15h23Zm74.5,90h-38a7.5,7.5,0,0,0-7.5,7.5v30a7.5,7.5,0,0,0,7.5,7.5h38a7.5,7.5,0,0,0,7.5-7.5V443A7.5,7.5,0,0,0,385.8,435.48Zm-7.5,30h-23v-15h23ZM251.8,284h-38a7.5,7.5,0,0,0,0,15h38a7.5,7.5,0,0,0,0-15Zm67,151.44h-38a7.5,7.5,0,0,0-7.5,7.5v30a7.5,7.5,0,0,0,7.5,7.5h38a7.5,7.5,0,0,0,7.5-7.5V443A7.5,7.5,0,0,0,318.8,435.48Zm-7.5,30h-23v-15h23ZM318.8,284h-38a7.5,7.5,0,0,0,0,15h38a7.5,7.5,0,0,0,0-15Zm0,91.44h-38a7.5,7.5,0,0,0-7.5,7.5v30a7.5,7.5,0,0,0,7.5,7.5h38a7.5,7.5,0,0,0,7.5-7.5V383A7.5,7.5,0,0,0,318.8,375.48Zm-7.5,30h-23v-15h23Zm-59.5,30h-38a7.5,7.5,0,0,0-7.5,7.5v30a7.5,7.5,0,0,0,7.5,7.5h38a7.5,7.5,0,0,0,7.5-7.5V443A7.5,7.5,0,0,0,251.8,435.48Zm-7.5,30h-23v-15h23Zm7.5-150h-38a7.5,7.5,0,0,0-7.5,7.5v30a7.5,7.5,0,0,0,7.5,7.5h38a7.5,7.5,0,0,0,7.5-7.5V323A7.5,7.5,0,0,0,251.8,315.48Zm-7.5,30h-23v-15h23Zm141.5,30h-38a7.5,7.5,0,0,0-7.5,7.5v30a7.5,7.5,0,0,0,7.5,7.5h38a7.5,7.5,0,0,0,7.5-7.5V383A7.5,7.5,0,0,0,385.8,375.48Zm-7.5,30h-23v-15h23Zm7.5-90h-38a7.5,7.5,0,0,0-7.5,7.5v30a7.5,7.5,0,0,0,7.5,7.5h38a7.5,7.5,0,0,0,7.5-7.5V323A7.5,7.5,0,0,0,385.8,315.48Zm-7.5,30h-23v-15h23Zm-126.5,30h-38a7.5,7.5,0,0,0-7.5,7.5v30a7.5,7.5,0,0,0,7.5,7.5h38a7.5,7.5,0,0,0,7.5-7.5V383A7.5,7.5,0,0,0,251.8,375.48Zm-7.5,30h-23v-15h23Z" class="color3c3b41 svgShape"></path></svg></g></svg>