<svg id="SvgjsSvg1182" width="288" height="288" xmlns="http://www.w3.org/2000/svg" version="1.1" xmlns:xlink="http://www.w3.org/1999/xlink" xmlns:svgjs="http://svgjs.com/svgjs"><defs id="SvgjsDefs1183"></defs><g id="SvgjsG1184"><svg xmlns="http://www.w3.org/2000/svg" viewBox="0 0 64 64" width="288" height="288"><g data-name="Creditcard Protection"><rect width="46" height="34" y="30" fill="#2563eb" rx="4" class="color50d9d7 svgShape"></rect><rect width="46" height="10" y="35" fill="#1e40af" class="color00bebd svgShape"></rect><path fill="#1e40af" d="M46,34v1H16V30H42A4,4,0,0,1,46,34Z" class="color00bebd svgShape"></path><path fill="#1e40af" d="M46,35V45H22a6,6,0,0,1-6-6V35Z" class="color00aaa8 svgShape"></path><path fill="#3b82f6" d="M64,13V39a4,4,0,0,1-4,4H22a4,4,0,0,1-4-4V13a4,4,0,0,1,4-4H60A4,4,0,0,1,64,13Z" class="color93e6e5 svgShape"></path><rect width="12" height="8" x="48" y="13" fill="#ffac00" rx="2" class="colorffac00 svgShape"></rect><path fill="#2563eb" d="M33,14a1,1,0,0,1-1,1H22a1,1,0,0,1,0-2H32A1,1,0,0,1,33,14Z" class="color50d9d7 svgShape"></path><path fill="#1e40af" d="M22,13a1,1,0,0,0,0,2h3.64a14.58,14.58,0,0,0,.27-2Z" class="color00bebd svgShape"></path><path fill="#2563eb" d="M26 9a35.34 35.34 0 01-.09 4H22a1 1 0 000 2h3.64A19.8 19.8 0 0118 27.14V18.38c2.08-3.43 2-6.19 2-8.84C21.24 8.83 22 9 26 9zM28 19h4a1 1 0 000-2H28a1 1 0 000 2z" class="color50d9d7 svgShape"></path><path fill="#ffac00" d="M23,6v5.3A16.71,16.71,0,0,1,12,27,16.71,16.71,0,0,1,1,11.3V6L12,1Z" class="colorffac00 svgShape"></path><path fill="#ea9706" d="M11.66,27.94A17.78,17.78,0,0,1,0,11.29V6a1,1,0,0,1,.59-.91l11-5a1,1,0,0,1,.82,0l11,5A1,1,0,0,1,24,6v5.29A17.78,17.78,0,0,1,12.34,27.94,1,1,0,0,1,11.66,27.94ZM2,6.64v4.65A15.76,15.76,0,0,0,12,25.93,15.76,15.76,0,0,0,22,11.29V6.64L12,2.1Z" class="colorea9706 svgShape"></path><circle cx="27" cy="34" r="5" fill="#2563eb" class="color50d9d7 svgShape"></circle><circle cx="33" cy="34" r="5" fill="#ffac00" class="colorffac00 svgShape"></circle><path fill="#2563eb" d="M41 27H39a1 1 0 010-2h2a1 1 0 010 2zM47 27H45a1 1 0 010-2h2a1 1 0 010 2zM53 27H51a1 1 0 010-2h2a1 1 0 010 2zM59 27H57a1 1 0 010-2h2a1 1 0 010 2zM57 39c-1.91 0-1-4 2-4a1 1 0 010 2 1 1 0 00-1 1A1 1 0 0157 39zM53 39a1 1 0 01-1-1 7 7 0 017-7 1 1 0 010 2 5 5 0 00-5 5A1 1 0 0153 39z" class="color50d9d7 svgShape"></path><path fill="#f3f3f3" d="M11.29,17.71l-3-3a1,1,0,0,1,1.42-1.42L12,15.59l5.29-5.3a1,1,0,0,1,1.42,1.42l-6,6A1,1,0,0,1,11.29,17.71Z" class="colorf3f3f3 svgShape"></path><rect width="26" height="6" x="3" y="48" fill="#f3f3f3" rx="2" class="colorf3f3f3 svgShape"></rect><path fill="#d9d9d9" d="M8 52H6a1 1 0 010-2H8a1 1 0 010 2zM14 52H12a1 1 0 010-2h2a1 1 0 010 2zM20 52H18a1 1 0 010-2h2a1 1 0 010 2zM26 52H24a1 1 0 010-2h2a1 1 0 010 2z" class="colord9d9d9 svgShape"></path></g></svg></g></svg>