<svg id="SvgjsSvg1044" width="288" height="288" xmlns="http://www.w3.org/2000/svg" version="1.1" xmlns:xlink="http://www.w3.org/1999/xlink" xmlns:svgjs="http://svgjs.com/svgjs"><defs id="SvgjsDefs1045"></defs><g id="SvgjsG1046"><svg xmlns="http://www.w3.org/2000/svg" viewBox="0 0 512 512" width="288" height="288"><rect width="465" height="286" x="39.5" y="57.5" fill="#1067ae" rx="30" class="color1067ae svgShape"></rect><path fill="#0a56a4" d="M474.5,57.5h-30a30,30,0,0,1,30,30v226a30,30,0,0,1-30,30h30a30,30,0,0,0,30-30V87.5A30,30,0,0,0,474.5,57.5Z" class="color0a56a4 svgShape"></path><rect width="465" height="64" x="39.5" y="109.5" fill="#57565c" class="color57565c svgShape"></rect><rect width="30" height="64" x="474.5" y="109.5" fill="#3c3b41" class="color3c3b41 svgShape"></rect><rect width="465" height="286" x="7.5" y="153.5" fill="#227fc0" rx="30" class="color227fc0 svgShape"></rect><path fill="#2370b5" d="M442.5,153.5h-30a30,30,0,0,1,30,30v226a30,30,0,0,1-30,30h30a30,30,0,0,0,30-30v-226A30,30,0,0,0,442.5,153.5Z" class="color2370b5 svgShape"></path><rect width="131" height="32" x="293.5" y="198.5" fill="#ffffff" rx="10" class="colorfff svgShape"></rect><path fill="#e1e1e3" d="M414.5,198.5h-30a10,10,0,0,1,10,10v12a10,10,0,0,1-10,10h30a10,10,0,0,0,10-10v-12A10,10,0,0,0,414.5,198.5Z" class="colore1e1e3 svgShape"></path><rect width="70" height="51" x="55.5" y="198.5" fill="#f8be32" rx="10" class="colorf8be32 svgShape"></rect><path fill="#fed030" d="M115.5,198.5H94.13a10,10,0,0,1,10,10v31a10,10,0,0,1-10,10H115.5a10,10,0,0,0,10-10v-31A10,10,0,0,0,115.5,198.5Z" class="colorfed030 svgShape"></path><path fill="#ffffff" d="M212.08 372H55.51a7.5 7.5 0 1 1 0-15H212.08a7.5 7.5 0 1 1 0 15zM141.5 402H55.85a7.5 7.5 0 0 1 0-15H141.5a7.5 7.5 0 0 1 0 15z" class="colorfff svgShape"></path><circle cx="402" cy="381" r="22.5" fill="#f9a242" class="colorf9a242 svgShape"></circle><path fill="#f69531" d="M402,358.5a22.46,22.46,0,0,0-7.5,1.29,22.5,22.5,0,0,1,0,42.42A22.5,22.5,0,1,0,402,358.5Z" class="colorf69531 svgShape"></path><circle cx="372" cy="381" r="22.5" fill="#f8be32" class="colorf8be32 svgShape"></circle><path fill="#fed030" d="M372,358.5a22.46,22.46,0,0,0-7.5,1.29,22.5,22.5,0,0,1,0,42.42A22.5,22.5,0,1,0,372,358.5Z" class="colorfed030 svgShape"></path><path fill="#ffffff" d="M120.85 320h-65a7.5 7.5 0 0 1 0-15h65a7.5 7.5 0 1 1 0 15zM222.06 320h-65a7.5 7.5 0 0 1 0-15h65a7.5 7.5 0 0 1 0 15zM323.28 320h-65a7.5 7.5 0 0 1 0-15h65a7.5 7.5 0 0 1 0 15zM424.5 320h-65a7.5 7.5 0 0 1 0-15h65a7.5 7.5 0 0 1 0 15z" class="colorfff svgShape"></path></svg></g></svg>