<svg id="SvgjsSvg1133" width="288" height="288" xmlns="http://www.w3.org/2000/svg" version="1.1" xmlns:xlink="http://www.w3.org/1999/xlink" xmlns:svgjs="http://svgjs.com/svgjs"><defs id="SvgjsDefs1134"></defs><g id="SvgjsG1135"><svg xmlns="http://www.w3.org/2000/svg" viewBox="0 0 512 512" width="288" height="288"><path fill="#1cabe1" d="M470.93,256A214.79,214.79,0,0,1,104,408q-4.47-4.49-8.65-9.17a213,213,0,0,1-50.46-102h0a216.25,216.25,0,0,1-3.68-32.5q-.16-4.12-.16-8.27a217.59,217.59,0,0,1,3.77-40.4A213.5,213.5,0,0,1,104,104a216.25,216.25,0,0,1,27.3-23.14A213.33,213.33,0,0,1,256,41.07a215.9,215.9,0,0,1,55.19,7.12A214.57,214.57,0,0,1,470.93,256Z" class="color1cabe1 svgShape"></path><path fill="#199ad5" d="M464.44,203.26A215.51,215.51,0,0,0,311.19,48.19,215.9,215.9,0,0,0,256,41.07q-7.55,0-15,.52a214.93,214.93,0,0,1,.08,428.81c5,.34,9.92.53,14.93.53A215.22,215.22,0,0,0,464.44,203.26Z" class="color199ad5 svgShape"></path><path fill="#aece44" d="M376.85,241.21c3.25,9.49,29.37-.3,44.33,15.15,7.64,7.88,11.5,21.38,7.17,30.78-6.22,13.49-24,7-35.78,19.73-17.41,18.88,7.7,49.13-10.1,75.19-8.72,12.77-25.53,22.64-42.09,20.2-18.32-2.71-34.8-20.24-33.1-33.67.76-6.15,4.73-6.53,8.41-14,8.69-17.69,1-44.59-14.59-57.81-9.74-8.25-16-3.51-29.74-11.22-18.76-10.54-52.31-37.06-47.7-63.41,5-28.34,51.27-40.35,58.36-42.09,48.78-11.94,80.86,16.45,97.63-1.12,9.18-9.61,8.32-27,2.54-38.42-8.13-16-28.42-24.68-41.81-19.94-13.91,4.94-17.58,23.3-25.81,21.89-4.76-.81-3.91-7.23-10.66-11.22-7.34-4.36-13.74,0-31.43,1.68-14.63,1.37-21.94,2.06-26.93-2.25-7.79-6.71-8.62-24.3-.91-35.18C257.21,77.72,283,91.41,301.12,74.2c8.37-7.94,9.41-17,10.07-26A215.51,215.51,0,0,1,464.44,203.26C458.5,209.61,451,215,442,217.08c-17.64,4-30.27-7.12-47.7,1.68C384.05,223.92,374.62,234.69,376.85,241.21Z" class="coloraece44 svgShape"></path><path fill="#95c748" d="M345.57 182.16c-14.3-3-31.88-7-52.87-4.15C316.33 180.94 333.85 189 345.57 182.16zM273.91 131.23c-6.52-3.87-12.31-.85-25.93 1 4.93 2.47 12.07 1.8 24.5.64 1.14-.11 2.24-.23 3.3-.35A13.51 13.51 0 0 0 273.91 131.23zM376.85 241.21c-2.23-6.52 7.2-17.29 17.4-22.45.93-.47 1.85-.87 2.76-1.24-10.8-1.35-20.61-4.89-32.76 1.24-10.2 5.16-19.63 15.93-17.4 22.45 3.25 9.49 29.37-.3 44.33 15.15 7.64 7.88 11.5 21.38 7.17 30.78-6.22 13.49-24 7-35.78 19.73-17.41 18.88 7.7 49.13-10.1 75.19a49.41 49.41 0 0 1-21.65 17.43 38.2 38.2 0 0 0 9.56 2.77c16.56 2.44 33.37-7.43 42.09-20.2 17.8-26.06-7.31-56.31 10.1-75.19 11.77-12.77 29.56-6.24 35.78-19.73 4.33-9.4.47-22.9-7.17-30.78C406.22 240.91 380.1 250.7 376.85 241.21zM310.38 120.56c-5 1.76-8.61 5.23-11.64 8.9a12.66 12.66 0 0 1 5.17 1.77c6.75 4 5.9 10.41 10.66 11.22 7 1.2 10.72-11.95 20.27-18.92C326.66 119.33 317.53 118 310.38 120.56zM408 104a213.71 213.71 0 0 0-96.79-55.83A73.18 73.18 0 0 1 310 58.05 215.75 215.75 0 0 1 434.44 203.26a47.26 47.26 0 0 1-18.29 12.59c8.17 1.13 16.25 3.4 25.8 1.23 9.08-2.06 16.55-7.47 22.49-13.82A213.48 213.48 0 0 0 408 104z" class="color95c748 svgShape"></path><path fill="#aece44" d="M144.19 110.5c5 17.59 11.41 54.91-4 65-6.79 4.45-16.46 2.71-19 9.32-1.11 2.83-.94 6.62-3.86 12.3a20.72 20.72 0 0 1-2.48 3.69c-13.42 16.34-45.76 21.35-70 14.79A213.5 213.5 0 0 1 104 104a216.25 216.25 0 0 1 27.3-23.14A123.5 123.5 0 0 1 144.19 110.5zM228.15 375.89c-8.67 8.65-18.09 2.06-42.65 14.58-6.09 3.11-21.83 11.48-29.31 28-5.26 11.65-3.32 20.55-8 22-4.27 1.33-10-4.84-14-10C130.35 422.7 110.9 413 104 408a35.22 35.22 0 0 1-8.65-9.17c5-10.28 9.54-21.72 6.52-36.95-3.19-16.09-12.84-26.53-23.56-38.16a155.64 155.64 0 0 0-33.42-26.92h0a216.25 216.25 0 0 1-3.68-32.5 111.8 111.8 0 0 1 62.91 15.66 163.62 163.62 0 0 1 31.42 24.69c13.64 14.31 14.31 21.27 21.88 23 18.44 4.23 31.1-33.11 48.82-30.87C227.55 299.46 246.07 358 228.15 375.89z" class="coloraece44 svgShape"></path><path fill="#95c748" d="M74.14 279.93a163.62 163.62 0 0 1 31.42 24.69c13.64 14.31 14.31 21.27 21.88 23 7.19 1.65 13.49-3 19.56-9.19a130.37 130.37 0 0 0-11.44-13.82 163.62 163.62 0 0 0-31.42-24.69 111.8 111.8 0 0 0-62.91-15.66c0 .86.08 1.72.12 2.58A114.06 114.06 0 0 1 74.14 279.93zM206.26 296.76c-6.12-.77-11.64 3.18-17 8.51 14.56 17.46 23 56.58 8.89 70.62-8.67 8.65-18.09 2.06-42.65 14.58-6.09 3.11-21.83 11.48-29.31 28-.45 1-.83 2-1.19 2.93 4.24 3.07 7.78 6.2 9.19 9.07 4 5.16 9.73 11.33 14 10 4.68-1.45 2.74-10.35 8-22 7.48-16.55 23.22-24.92 29.31-28 24.56-12.52 34-5.93 42.65-14.58C246.07 358 227.55 299.46 206.26 296.76zM114.19 110.5c5 17.59 11.41 54.91-4 65-6.79 4.45-16.46 2.71-19 9.32-1.11 2.83-.94 6.62-3.86 12.3a20.72 20.72 0 0 1-2.48 3.69c-7.06 8.59-19.34 14.05-32.93 16.34 23.09 4 50.77-1.54 62.93-16.34a20.72 20.72 0 0 0 2.48-3.69c2.92-5.68 2.75-9.47 3.86-12.3 2.59-6.61 12.26-4.87 19-9.32 15.41-10.09 9-47.41 4-65a123.5 123.5 0 0 0-12.87-29.62A214.63 214.63 0 0 0 110 98.28 123.1 123.1 0 0 1 114.19 110.5z" class="color95c748 svgShape"></path><path fill="#2563eb" d="M256,334.21a78.22,78.22,0,1,1,55.3-22.91A77.7,77.7,0,0,1,256,334.21Z" class="colorfed947 svgShape"></path><path fill="#1d4ed8" d="M311.3,200.7A77.7,77.7,0,0,0,256,177.79a79.75,79.75,0,0,0-12.5,1,78.21,78.21,0,0,1,0,154.4,79.75,79.75,0,0,0,12.5,1A78.21,78.21,0,0,0,311.3,200.7Z" class="colorfecc30 svgShape"></path><path fill="#1e40af" d="M256,341.71a85.71,85.71,0,1,1,60.6-25.11A85.13,85.13,0,0,1,256,341.71Zm0-156.42A70.69,70.69,0,1,0,306,206,70.27,70.27,0,0,0,256,185.29Z" class="colorf8be32 svgShape"></path><path fill="#ffffff" d="M247.74,270.39H228.82a7.5,7.5,0,0,1,0-15h18.92a15.75,15.75,0,0,0,0-31.49H234.16a7.5,7.5,0,0,1,0-15h13.58a30.75,30.75,0,0,1,0,61.49Z" class="colorfff svgShape"></path><path fill="#ffffff" d="M283.7 223.9H228.82a7.5 7.5 0 0 1 0-15H283.7a7.5 7.5 0 0 1 0 15zM283.7 246.77H228.82a7.5 7.5 0 0 1 0-15H283.7a7.5 7.5 0 0 1 0 15zM270.09 310.76a7.45 7.45 0 0 1-5.22-2.12l-41.6-40.41a7.5 7.5 0 0 1 10.46-10.76l41.59 40.41a7.5 7.5 0 0 1-5.23 12.88z" class="colorfff svgShape"></path><path fill="#2563eb" d="M429.5,504.5a74.93,74.93,0,1,1,53-21.92A74.56,74.56,0,0,1,429.5,504.5Z" class="colorfed947 svgShape"></path><path fill="#1d4ed8" d="M482.53,376.76a74.59,74.59,0,0,0-53-21.91,76.22,76.22,0,0,0-12.5,1,74.8,74.8,0,0,1,0,147.55,76.22,76.22,0,0,0,12.5,1.05,74.79,74.79,0,0,0,53-127.74Z" class="colorfecc30 svgShape"></path><path fill="#1e40af" d="M429.5,512a82.42,82.42,0,1,1,58.33-24.11A82,82,0,0,1,429.5,512Zm0-149.65a67.4,67.4,0,1,0,47.74,19.72A67.16,67.16,0,0,0,429.5,362.35Z" class="colorf8be32 svgShape"></path><path fill="#2563eb" d="M82.5,504.5a74.83,74.83,0,1,1,53-127.74,74.83,74.83,0,0,1-53,127.74Z" class="colorfed947 svgShape"></path><path fill="#1d4ed8" d="M135.53,376.76a74.59,74.59,0,0,0-53-21.91,76.22,76.22,0,0,0-12.5,1,74.8,74.8,0,0,1,0,147.55,76.22,76.22,0,0,0,12.5,1.05,74.79,74.79,0,0,0,53-127.74Z" class="colorfecc30 svgShape"></path><path fill="#1e40af" d="M82.5,512a82.33,82.33,0,1,1,58.33-140.54A82.33,82.33,0,0,1,82.5,512Zm0-149.65a67.33,67.33,0,1,0,47.74,114.92A67.32,67.32,0,0,0,82.5,362.35Z" class="colorf8be32 svgShape"></path><path fill="#ffffff" d="M82.63,438a7.52,7.52,0,0,1-6.33-3.47L53.52,398.67a7.5,7.5,0,0,1,12.66-8.05L82.6,416.44l16.2-25.79a7.5,7.5,0,1,1,12.7,8L89,434.46A7.47,7.47,0,0,1,82.65,438Z" class="colorfff svgShape"></path><path fill="#ffffff" d="M82.37,482.85a7.49,7.49,0,0,1-7.5-7.5V430.47a7.5,7.5,0,0,1,15,0v44.88A7.5,7.5,0,0,1,82.37,482.85Z" class="colorfff svgShape"></path><path fill="#ffffff" d="M99.86 436.85H65.14a7.5 7.5 0 1 1 0-15H99.86a7.5 7.5 0 1 1 0 15zM99.86 457.85H65.14a7.5 7.5 0 1 1 0-15H99.86a7.5 7.5 0 1 1 0 15z" class="colorfff svgShape"></path><path fill="#2563eb" d="M429.5,157.15a74.91,74.91,0,1,1,53-21.91A74.59,74.59,0,0,1,429.5,157.15Z" class="colorfed947 svgShape"></path><path fill="#1d4ed8" d="M482.53,29.42a74.56,74.56,0,0,0-53-21.92A76.22,76.22,0,0,0,417,8.55a74.8,74.8,0,0,1,0,147.55,76.22,76.22,0,0,0,12.5,1.05,74.78,74.78,0,0,0,53-127.73Z" class="colorfecc30 svgShape"></path><path fill="#1e40af" d="M429.5,164.65a82.42,82.42,0,1,1,58.33-24.11A82,82,0,0,1,429.5,164.65ZM429.5,15a67.41,67.41,0,1,0,47.74,19.73A67.17,67.17,0,0,0,429.5,15Z" class="colorf8be32 svgShape"></path><path fill="#ffffff" d="M434.68,123H424.32a19,19,0,0,1-19-18.94v-.54a7.5,7.5,0,0,1,15,0v.54a4,4,0,0,0,4,3.94h10.36a4,4,0,0,0,4-3.94V93.77a4,4,0,0,0-4-3.94H424.32a19,19,0,0,1-19-18.94V60.55a19,19,0,0,1,19-18.94h10.36a19,19,0,0,1,19,18.94,7.5,7.5,0,1,1-15,0,4,4,0,0,0-4-3.94H424.32a4,4,0,0,0-4,3.94V70.89a4,4,0,0,0,4,3.94h10.36a19,19,0,0,1,19,18.94V104.1A19,19,0,0,1,434.68,123Z" class="colorfff svgShape"></path><path fill="#ffffff" d="M429.87 56.61a7.5 7.5 0 0 1-7.5-7.5V35.83a7.5 7.5 0 1 1 15 0V49.11A7.5 7.5 0 0 1 429.87 56.61zM429.87 136.32a7.5 7.5 0 0 1-7.5-7.5V115.54a7.5 7.5 0 1 1 15 0v13.28A7.5 7.5 0 0 1 429.87 136.32z" class="colorfff svgShape"></path><path fill="#2563eb" d="M82.5,157.15a74.83,74.83,0,1,1,53-127.73,74.82,74.82,0,0,1-53,127.73Z" class="colorfed947 svgShape"></path><path fill="#1d4ed8" d="M135.53,29.42A74.56,74.56,0,0,0,82.5,7.5,76.22,76.22,0,0,0,70,8.55,74.8,74.8,0,0,1,70,156.1a76.22,76.22,0,0,0,12.5,1.05,74.78,74.78,0,0,0,53-127.73Z" class="colorfecc30 svgShape"></path><path fill="#1e40af" d="M82.5,164.65A82.33,82.33,0,1,1,140.83,24.11,82.33,82.33,0,0,1,82.5,164.65ZM82.5,15a67.33,67.33,0,1,0,47.74,114.93A67.33,67.33,0,0,0,82.5,15Z" class="colorf8be32 svgShape"></path><path fill="#ffffff" d="M103.58,124.3H59.5a7.5,7.5,0,0,1-4.91-13.17A46.47,46.47,0,0,0,67.27,93.77C72,82.32,71,71.2,69.24,63.88a23.14,23.14,0,0,1,4.87-20.19,22.24,22.24,0,0,1,18.6-7.94c5.81.38,13.9,3.2,19.5,14.39A7.5,7.5,0,1,1,98.8,56.85c-2.93-5.86-6-6.06-7.09-6.14a7.38,7.38,0,0,0-6.15,2.68,8,8,0,0,0-1.72,7c2.24,9.47,3.58,23.95-2.73,39.11A59.78,59.78,0,0,1,76,109.3h27.62a7.5,7.5,0,0,1,0,15Z" class="colorfff svgShape"></path><path fill="#ffffff" d="M105.5 88.24H64.15a7.5 7.5 0 0 1 0-15H105.5a7.5 7.5 0 0 1 0 15zM444.19 422.17h-56a7.5 7.5 0 0 1 0-15h56a7.5 7.5 0 0 1 0 15zM444.19 452.17h-56a7.5 7.5 0 0 1 0-15h56a7.5 7.5 0 0 1 0 15z" class="colorfff svgShape"></path><path fill="#ffffff" d="M448.31,482c-26.69,0-48.41-23.46-48.41-52.29s21.72-52.28,48.41-52.28a7.5,7.5,0,1,1,0,15c-18.42,0-33.41,16.73-33.41,37.28s15,37.29,33.41,37.29a7.5,7.5,0,0,1,0,15Z" class="colorfff svgShape"></path></svg></g></svg>