<svg id="SvgjsSvg1204" width="288" height="288" xmlns="http://www.w3.org/2000/svg" version="1.1" xmlns:xlink="http://www.w3.org/1999/xlink" xmlns:svgjs="http://svgjs.com/svgjs"><defs id="SvgjsDefs1205"></defs><g id="SvgjsG1206"><svg xmlns="http://www.w3.org/2000/svg" viewBox="0 0 512 512" width="288" height="288"><g data-name="8. Mobile Payment"><rect width="320" height="496" x="40" y="8" fill="#1e40af" rx="64" class="color5f79a5 svgShape"></rect><path fill="#1e40af" d="M296 480H104a64 64 0 0 1-64-64v24a64 64 0 0 0 64 64h192a64 64 0 0 0 64-64v-24a64 64 0 0 1-64 64Z" class="color586f99 svgShape"></path><path d="M296 512H104a72.08 72.08 0 0 1-72-72V72a72.08 72.08 0 0 1 72-72h192a72.08 72.08 0 0 1 72 72v48a8 8 0 0 1-16 0V72a56.06 56.06 0 0 0-56-56H104a56.06 56.06 0 0 0-56 56v368a56.06 56.06 0 0 0 56 56h192a56.06 56.06 0 0 0 56-56v-48a8 8 0 0 1 16 0v48a72.08 72.08 0 0 1-72 72Z"></path><path d="M360 368a8 8 0 0 1-8-8V152a8 8 0 0 1 16 0v208a8 8 0 0 1-8 8Z"></path><path fill="#a8edfd" d="M328 72v368a32 32 0 0 1-32 32H104a32 32 0 0 1-32-32V72a32 32 0 0 1 32-32h15.51A21.13 21.13 0 0 1 140 56a21.13 21.13 0 0 0 20.49 16h71A21.13 21.13 0 0 0 252 56a21.13 21.13 0 0 1 20.49-16H296a32 32 0 0 1 32 32Z" class="colora8edfd svgShape"></path><path fill="#8bd4de" d="M296 448H104a32 32 0 0 1-32-32v24a32 32 0 0 0 32 32h192a32 32 0 0 0 32-32v-24a32 32 0 0 1-32 32Z" class="color8bd4de svgShape"></path><path d="M296 480H104a40 40 0 0 1-40-40V72a40 40 0 0 1 40-40h15.51a29.08 29.08 0 0 1 28.25 22.06A13.11 13.11 0 0 0 160.49 64h71a13.11 13.11 0 0 0 12.73-9.94A29.08 29.08 0 0 1 272.49 32H296a40 40 0 0 1 40 40v368a40 40 0 0 1-40 40ZM104 48a24 24 0 0 0-24 24v368a24 24 0 0 0 24 24h192a24 24 0 0 0 24-24V72a24 24 0 0 0-24-24h-23.51a13.11 13.11 0 0 0-12.73 9.94A29.08 29.08 0 0 1 231.51 80h-71a29.08 29.08 0 0 1-28.25-22.06A13.11 13.11 0 0 0 119.51 48Z"></path><path d="M280 448H120a8 8 0 0 1 0-16h160a8 8 0 0 1 0 16Z"></path><path fill="#6fc3e2" d="M180 400a20 20 0 0 1-20-20V132a20 20 0 0 1 40 0v248a20 20 0 0 1-20 20Z" class="color6fc3e2 svgShape"></path><path d="M180 408a28 28 0 0 1-28-28V132a28 28 0 0 1 56 0v248a28 28 0 0 1-28 28Zm0-288a12 12 0 0 0-12 12v248a12 12 0 0 0 24 0V132a12 12 0 0 0-12-12Z"></path><path fill="#3b82f6" d="M472 168v176a16 16 0 0 1-16 16H160V152h296a16 16 0 0 1 16 16Z" class="colorb1da7a svgShape"></path><path fill="#2563eb" d="M456 336H160v24h296a16 16 0 0 0 16-16v-24a16 16 0 0 1-16 16Z" class="color96bf5b svgShape"></path><path d="M456 368H160a8 8 0 0 1-8-8V152a8 8 0 0 1 8-8h296a24 24 0 0 1 24 24v176a24 24 0 0 1-24 24Zm-288-16h288a8 8 0 0 0 8-8V168a8 8 0 0 0-8-8H168Z"></path><path d="M300 304h-28a8 8 0 0 1 0-16h28a12 12 0 0 0 0-24h-8a28 28 0 0 1 0-56h28a8 8 0 0 1 0 16h-28a12 12 0 0 0 0 24h8a28 28 0 0 1 0 56Z"></path><path d="M296 224a8 8 0 0 1-8-8v-16a8 8 0 0 1 16 0v16a8 8 0 0 1-8 8zm0 96a8 8 0 0 1-8-8v-16a8 8 0 0 1 16 0v16a8 8 0 0 1-8 8zm176-112a56.06 56.06 0 0 1-56-56 8 8 0 0 1 8-8h32a24 24 0 0 1 24 24v32a8 8 0 0 1-8 8zm-39.2-48a40.13 40.13 0 0 0 31.2 31.2V168a8 8 0 0 0-8-8zM456 368h-32a8 8 0 0 1-8-8 56.06 56.06 0 0 1 56-56 8 8 0 0 1 8 8v32a24 24 0 0 1-24 24zm-23.2-16H456a8 8 0 0 0 8-8v-23.2a40.13 40.13 0 0 0-31.2 31.2zM232 264h-16a8 8 0 0 1 0-16h16a8 8 0 0 1 0 16zm144 0h-16a8 8 0 0 1 0-16h16a8 8 0 0 1 0 16zM168 48a8 8 0 1 1 8-8 8 8 0 0 1-8 8zm56 0h-24a8 8 0 0 1 0-16h24a8 8 0 0 1 0 16z"></path></g></svg></g></svg>