<svg id="SvgjsSvg1262" width="288" height="288" xmlns="http://www.w3.org/2000/svg" version="1.1" xmlns:xlink="http://www.w3.org/1999/xlink" xmlns:svgjs="http://svgjs.com/svgjs"><defs id="SvgjsDefs1263"></defs><g id="SvgjsG1264"><svg xmlns="http://www.w3.org/2000/svg" viewBox="0 0 64 64" width="288" height="288"><path fill="#1e40af" d="M40 6v52a6 6 0 0 1-6 6H6a6 6 0 0 1-6-6V6a6 6 0 0 1 6-6c30.32 0 28.68-.17 30.14.4A6 6 0 0 1 40 6Z" class="color00bebd svgShape"></path><path fill="#ffffff" d="M38 6v50a4 4 0 0 1-4 4H6a4 4 0 0 1-4-4V6a4 4 0 0 1 4-4h5.28a1 1 0 0 1 1 .68c.27.83.56 2.32 2.21 2.32h11.07a2 2 0 0 0 1.9-1.37l.31-.95a1 1 0 0 1 .95-.68h5.77A4 4 0 0 1 38 6Z" class="colorfff svgShape"></path><path fill="#2563eb" d="M38 6v25H2V6a4 4 0 0 1 4-4h5.28a1 1 0 0 1 1 .68c.27.83.56 2.32 2.21 2.32h11.07a2 2 0 0 0 1.9-1.37l.31-.95a1 1 0 0 1 .95-.68h5.77A4 4 0 0 1 38 6Z" class="color50d9d7 svgShape"></path><path fill="#f3f3f3" d="M27 16a7 7 0 1 1-7-7 7 7 0 0 1 7 7Z" class="colorf3f3f3 svgShape"></path><path fill="#d9d9d9" d="M26.12 19.41a7 7 0 0 1-12.24 0 9 9 0 0 1 12.24 0Z" class="colord9d9d9 svgShape"></path><circle cx="20" cy="14" r="3" fill="#d9d9d9" class="colord9d9d9 svgShape"></circle><path fill="#d9d9d9" d="M31 58H9a1 1 0 0 1 0-2h22a1 1 0 0 1 0 2Z" class="colord9d9d9 svgShape"></path><path fill="#ffac00" d="M30 17h4v30h-4z" class="colorffac00 svgShape"></path><path fill="#1e40af" d="M38 17h2v30h-2z" class="color00aaa8 svgShape"></path><path fill="#f3f3f3" d="M34 31h4v16h-4z" class="colorf3f3f3 svgShape"></path><path fill="#1e40af" d="M34 17h4v14h-4z" class="color00bebd svgShape"></path><path fill="#2563eb" d="M64 21v22a2 2 0 0 1-2 2H34V19h28a2 2 0 0 1 2 2Z" class="color50d9d7 svgShape"></path><path fill="#1e40af" d="M30 19h4v26h-4zM62 24v16a3 3 0 0 0-3 3H34V21h25a3 3 0 0 0 3 3Z" class="color00bebd svgShape"></path><path fill="#1e40af" d="M30 21h4v22h-4z" class="color00aaa8 svgShape"></path><circle cx="44" cy="32" r="8" fill="#fdfdfd" class="colorfdfdfd svgShape"></circle><path fill="#fdfdfd" d="M59 33h-4a1 1 0 0 1 0-2h4a1 1 0 0 1 0 2Z" class="colorfdfdfd svgShape"></path><path fill="#d9d9d9" d="M33 33h-3v-2h3a1 1 0 0 1 0 2Z" class="colord9d9d9 svgShape"></path><path fill="#ffac00" d="M44.5 31h-1a.5.5 0 0 1 0-1H46a1 1 0 0 0 0-2h-1v-1a1 1 0 0 0-2 0v1.05a2.5 2.5 0 0 0 .5 4.95h1a.5.5 0 0 1 0 1H42a1 1 0 0 0 0 2h1v1a1 1 0 0 0 2 0v-1a2.5 2.5 0 0 0-.5-5Z" class="colorffac00 svgShape"></path><path fill="#f3f3f3" d="M14 25h12v2H14z" class="colorf3f3f3 svgShape"></path><path fill="#d9d9d9" d="M5 34h18v2H5zM5 38h20v2H5z" class="colord9d9d9 svgShape"></path><rect width="17" height="12" x="5" y="42" fill="#ffac00" rx="2" class="colorffac00 svgShape"></rect><path fill="#d8890b" d="M5 45v2a7 7 0 0 1 7 7h2a9 9 0 0 0-9-9Z" class="colord8890b svgShape"></path></svg></g></svg>