<svg id="SvgjsSvg1246" width="288" height="288" xmlns="http://www.w3.org/2000/svg" version="1.1" xmlns:xlink="http://www.w3.org/1999/xlink" xmlns:svgjs="http://svgjs.com/svgjs"><defs id="SvgjsDefs1247"></defs><g id="SvgjsG1248"><svg xmlns="http://www.w3.org/2000/svg" data-name="Layer 1" viewBox="0 0 512 512" width="288" height="288"><path fill="#24b378" d="M233.802 512h-.146c-5.027 0-10.114-.162-15.117-.481a7.5 7.5 0 0 1 .955-14.97c4.688.3 9.452.451 14.162.451h.146a7.5 7.5 0 1 1 0 15Zm29.5-1.926a7.5 7.5 0 0 1-.964-14.938 219.109 219.109 0 0 0 14.113-2.32 7.5 7.5 0 0 1 2.918 14.713 234.112 234.112 0 0 1-15.084 2.48 7.53 7.53 0 0 1-.983.065Zm-73.606-2.344a7.527 7.527 0 0 1-1.458-.143 233.066 233.066 0 0 1-14.893-3.447 7.5 7.5 0 1 1 3.861-14.494 218.02 218.02 0 0 0 13.933 3.225 7.5 7.5 0 0 1-1.443 14.86Zm116.782-7.708a7.501 7.501 0 0 1-2.413-14.603 218.13 218.13 0 0 0 13.359-5.037 7.5 7.5 0 0 1 5.752 13.853 233.491 233.491 0 0 1-14.283 5.386 7.49 7.49 0 0 1-2.415.401Zm-159.24-5.117a7.478 7.478 0 0 1-2.865-.571 234.247 234.247 0 0 1-13.943-6.316 7.5 7.5 0 1 1 6.635-13.453 218.497 218.497 0 0 0 13.044 5.908 7.501 7.501 0 0 1-2.87 14.432ZM346.8 481.711a7.501 7.501 0 0 1-3.764-13.992 219.318 219.318 0 0 0 12.131-7.562 7.5 7.5 0 1 1 8.348 12.463 234.261 234.261 0 0 1-12.965 8.081 7.465 7.465 0 0 1-3.75 1.01Zm-238.68-7.718a7.465 7.465 0 0 1-4.16-1.266 235.324 235.324 0 0 1-12.43-8.91 7.5 7.5 0 1 1 9.132-11.899 220.062 220.062 0 0 0 11.634 8.34 7.5 7.5 0 0 1-4.176 13.735Zm274.67-18.125a7.5 7.5 0 0 1-4.951-13.137 220.783 220.783 0 0 0 10.44-9.783 7.5 7.5 0 0 1 10.607 10.606 235.634 235.634 0 0 1-11.153 10.45 7.47 7.47 0 0 1-4.944 1.864ZM73.851 445.87a7.478 7.478 0 0 1-5.3-2.193 236.17 236.17 0 0 1-10.458-11.146 7.5 7.5 0 1 1 11.267-9.902 220.3 220.3 0 0 0 9.79 10.434 7.5 7.5 0 0 1-5.3 12.807Zm339.235-22.351a7.5 7.5 0 0 1-5.941-12.07 220.866 220.866 0 0 0 8.347-11.63 7.5 7.5 0 0 1 12.465 8.345 235.518 235.518 0 0 1-8.918 12.423 7.487 7.487 0 0 1-5.953 2.932ZM45.699 411.649a7.493 7.493 0 0 1-6.235-3.323 234.31 234.31 0 0 1-8.09-12.96 7.5 7.5 0 0 1 12.978-7.521 218.856 218.856 0 0 0 7.569 12.125 7.501 7.501 0 0 1-6.222 11.679Zm390.835-25.765a7.503 7.503 0 0 1-6.717-10.824 218.303 218.303 0 0 0 5.917-13.04 7.5 7.5 0 1 1 13.855 5.745 233.03 233.03 0 0 1-6.325 13.94 7.5 7.5 0 0 1-6.73 4.179ZM24.75 372.622a7.501 7.501 0 0 1-6.928-4.623 232.99 232.99 0 0 1-5.394-14.28 7.5 7.5 0 1 1 14.199-4.835 217.574 217.574 0 0 0 5.046 13.356 7.505 7.505 0 0 1-6.923 10.382Zm427.423-28.255a7.508 7.508 0 0 1-7.251-9.438 218.059 218.059 0 0 0 3.234-13.93 7.5 7.5 0 0 1 14.715 2.909 232.81 232.81 0 0 1-3.457 14.893 7.504 7.504 0 0 1-7.241 5.566Zm7.173-43.738c-.163 0-.326-.005-.491-.016a7.5 7.5 0 0 1-7.001-7.967c.304-4.73.46-9.542.46-14.303v-.58a7.5 7.5 0 0 1 15 0v.58c0 5.081-.165 10.219-.492 15.268a7.5 7.5 0 0 1-7.476 7.018ZM7.5 286.133a7.5 7.5 0 0 1-7.5-7.5L0 278.419c0-5.05.16-10.086.472-15.045a7.5 7.5 0 0 1 14.97.945A223.053 223.053 0 0 0 15 278.343l.001.29a7.5 7.5 0 0 1-7.5 7.5Zm450.32-30.375a7.501 7.501 0 0 1-7.424-6.511 220.084 220.084 0 0 0-2.35-14.11 7.5 7.5 0 1 1 14.708-2.946 234.7 234.7 0 0 1 2.51 15.076 7.5 7.5 0 0 1-6.445 8.424 7.6 7.6 0 0 1-.999.067Zm-446.069-13.74a7.507 7.507 0 0 1-7.367-8.946 232.67 232.67 0 0 1 3.438-14.898 7.5 7.5 0 0 1 14.496 3.854 218.63 218.63 0 0 0-3.215 13.934 7.503 7.503 0 0 1-7.352 6.057Zm435.94-29.405a7.503 7.503 0 0 1-7.096-5.075 217.812 217.812 0 0 0-5.063-13.35 7.5 7.5 0 0 1 13.844-5.776 233.237 233.237 0 0 1 5.412 14.272 7.505 7.505 0 0 1-7.098 9.929ZM24.538 199.564a7.505 7.505 0 0 1-6.929-10.366 233.187 233.187 0 0 1 6.307-13.947 7.5 7.5 0 0 1 13.457 6.626 218.478 218.478 0 0 0-5.9 13.049 7.503 7.503 0 0 1-6.935 4.638Zm404.774-27.232a7.498 7.498 0 0 1-6.492-3.732 219.203 219.203 0 0 0-7.585-12.117 7.5 7.5 0 1 1 12.448-8.37 234.615 234.615 0 0 1 8.106 12.948 7.503 7.503 0 0 1-6.477 11.271ZM45.42 160.436a7.502 7.502 0 0 1-6.231-11.665 235.689 235.689 0 0 1 8.9-12.436 7.5 7.5 0 0 1 11.907 9.124 219.99 219.99 0 0 0-8.33 11.64 7.495 7.495 0 0 1-6.246 3.337Zm357.978-24.048a7.481 7.481 0 0 1-5.63-2.541 221.216 221.216 0 0 0-9.803-10.423 7.5 7.5 0 0 1 10.586-10.627 236.73 236.73 0 0 1 10.472 11.132 7.5 7.5 0 0 1-5.624 12.459ZM73.526 126.14a7.5 7.5 0 0 1-5.31-12.796 236.292 236.292 0 0 1 11.14-10.465 7.5 7.5 0 0 1 9.91 11.26 221.787 221.787 0 0 0-10.43 9.798 7.475 7.475 0 0 1-5.31 2.203Zm297.456-19.997a7.466 7.466 0 0 1-4.553-1.545 220.28 220.28 0 0 0-11.645-8.324 7.5 7.5 0 0 1 8.32-12.482 234.8 234.8 0 0 1 12.442 8.895 7.5 7.5 0 0 1-4.564 13.456ZM107.738 97.96a7.5 7.5 0 0 1-4.188-13.727 234.679 234.679 0 0 1 12.953-8.098 7.5 7.5 0 0 1 7.531 12.973 219.394 219.394 0 0 0-12.12 7.577 7.467 7.467 0 0 1-4.176 1.275Zm225.563-15.191a7.467 7.467 0 0 1-3.303-.771 218.693 218.693 0 0 0-13.053-5.892 7.5 7.5 0 0 1 5.72-13.867 233.498 233.498 0 0 1 13.95 6.298 7.5 7.5 0 0 1-3.314 14.232Zm-186.552-5.778a7.502 7.502 0 0 1-2.888-14.426 233.03 233.03 0 0 1 14.278-5.403 7.5 7.5 0 0 1 4.843 14.196 217.483 217.483 0 0 0-13.351 5.054 7.487 7.487 0 0 1-2.882.579Zm42.362-12.919a7.5 7.5 0 0 1-1.46-14.856 233.63 233.63 0 0 1 15.08-2.5 7.5 7.5 0 1 1 1.966 14.87c-4.712.624-9.459 1.41-14.109 2.34a7.562 7.562 0 0 1-1.477.146Zm58.904-3.937c-.158 0-.317-.005-.476-.015a223.075 223.075 0 0 0-13.883-.433h-.435a7.5 7.5 0 0 1-.025-15h.46c4.932 0 9.918.155 14.82.462a7.5 7.5 0 0 1-.461 14.986Z" class="color24b378 svgShape"></path><path fill="#1e40af" d="M233.656 512A233.72 233.72 0 0 1 3.393 318.232a7.5 7.5 0 0 1 14.783-2.543 218.662 218.662 0 1 0 264.95-250.385 7.5 7.5 0 1 1 3.378-14.615 233.745 233.745 0 0 1 180.81 227.654A233.657 233.657 0 0 1 233.656 512Z" class="color144e92 svgShape"></path><circle cx="233.657" cy="278.343" r="168.936" fill="#fed947" class="colorfed947 svgShape"></circle><path fill="#fed030" d="M233.657 109.407a169.719 169.719 0 0 0-22.5 1.502c82.553 11.036 146.436 81.91 146.436 167.434S293.71 434.742 211.157 445.778a169.719 169.719 0 0 0 22.5 1.502c93.152 0 168.936-75.785 168.936-168.937 0-93.152-75.784-168.936-168.936-168.936Z" class="colorfed030 svgShape"></path><path fill="#f8be32" d="M233.656 454.78c-97.287 0-176.435-79.15-176.435-176.437s79.148-176.436 176.435-176.436 176.437 79.149 176.437 176.436-79.15 176.437-176.437 176.437Zm0-337.873c-89.015 0-161.435 72.42-161.435 161.436S144.64 439.78 233.656 439.78c89.017 0 161.437-72.42 161.437-161.437 0-89.016-72.42-161.436-161.437-161.436Z" class="colorf8be32 svgShape"></path><path fill="#dbeafe" d="M280.717 211.484h-94.12a7.5 7.5 0 0 1 0-15h94.12a7.5 7.5 0 0 1 0 15zm0 51.338h-94.12a7.5 7.5 0 0 1 0-15h94.12a7.5 7.5 0 0 1 0 15z" class="colorfff svgShape"></path><path fill="#dbeafe" d="M255.03 384.937a7.478 7.478 0 0 1-5.425-2.32l-68.152-71.352a7.5 7.5 0 0 1 2.605-12.13l.497-.201a7.499 7.499 0 0 1 2.82-.55h16.597a43.45 43.45 0 0 0-.001-86.9h-16.597a7.5 7.5 0 0 1 0-15h16.597a58.45 58.45 0 0 1 .248 116.899l56.233 58.874a7.5 7.5 0 0 1-5.423 12.68Z" class="colorfff svgShape"></path><circle cx="401.04" cy="110.96" r="103.46" fill="#2370b5" class="color2370b5 svgShape"></circle><path fill="#1067ae" d="M401.04 7.5a104.295 104.295 0 0 0-15 1.086 103.468 103.468 0 0 1 0 204.748 103.463 103.463 0 1 0 15-205.834Z" class="color1067ae svgShape"></path><path fill="#1e40af" d="M401.04 221.92A110.96 110.96 0 1 1 512 110.96a111.086 111.086 0 0 1-110.96 110.96Zm0-206.92A95.96 95.96 0 1 0 497 110.96 96.069 96.069 0 0 0 401.04 15Z" class="color144e92 svgShape"></path><path fill="#dbeafe" d="M401.04 168.072a7.48 7.48 0 0 1-5.304-2.197L371.66 141.8a7.5 7.5 0 0 1 10.608-10.607l18.772 18.773 18.773-18.773A7.5 7.5 0 0 1 430.42 141.8l-24.076 24.075a7.48 7.48 0 0 1-5.304 2.197Z" class="colorfff svgShape"></path><path fill="#dbeafe" d="M401.04 168.114a7.5 7.5 0 0 1-7.5-7.5V61.306a7.5 7.5 0 0 1 15 0v99.308a7.5 7.5 0 0 1-7.5 7.5Z" class="colorfff svgShape"></path></svg></g></svg>