<svg id="SvgjsSvg1114" width="288" height="288" xmlns="http://www.w3.org/2000/svg" version="1.1" xmlns:xlink="http://www.w3.org/1999/xlink" xmlns:svgjs="http://svgjs.com/svgjs"><defs id="SvgjsDefs1115"></defs><g id="SvgjsG1116"><svg xmlns="http://www.w3.org/2000/svg" viewBox="0 0 512 512" width="288" height="288"><circle cx="76" cy="255.07" r="7.5"></circle><circle cx="436" cy="255.07" r="7.5"></circle><ellipse cx="427.44" cy="405.41" rx="17.12" ry="17.04"></ellipse><rect width="437" height="242" x="37.5" y="134.07" fill="#1e40af" rx="30" class="color107f47 svgShape"></rect><path fill="#1e40af" d="M444.5,134.07h-30a30,30,0,0,1,30,30v182a30,30,0,0,1-30,30h30a30,30,0,0,0,30-30v-182A30,30,0,0,0,444.5,134.07Z" class="color0d7341 svgShape"></path><path fill="#2563eb" d="M414.5,376.07H97.5a60,60,0,0,0-60-60v-122a60,60,0,0,0,60-60h317a60,60,0,0,0,60,60v122A60,60,0,0,0,414.5,376.07Z" class="color19ac66 svgShape"></path><path fill="#2563eb" d="M444.5,194.07v130a59.75,59.75,0,0,1,30-8v-122a59.66,59.66,0,0,1-30-8Z" class="color17a454 svgShape"></path><path fill="#fed947" d="M256,347.57a92.51,92.51,0,1,1,65.41-27.1A91.86,91.86,0,0,1,256,347.57Z" class="colorfed947 svgShape"></path><path fill="#fecc30" d="M321.41,189.66A91.9,91.9,0,0,0,256,162.57a94.38,94.38,0,0,0-15,1.22,92.5,92.5,0,0,1,0,182.55,93.22,93.22,0,0,0,15,1.23,92.5,92.5,0,0,0,65.41-157.91Z" class="colorfecc30 svgShape"></path><path fill="#8b8893" d="M80,222.16c-20.92-11.26-38.47-26.44-51-44.23-14-19.82-21.42-42.46-21.42-65.47V74.54A176.25,176.25,0,0,0,55.57,55.36,175.44,175.44,0,0,0,79.72,38.43a164.38,164.38,0,0,0,31.59,21.5,164.49,164.49,0,0,0,41.11,14.91v37.62c0,23-7.41,45.65-21.42,65.47C118.43,195.72,100.88,210.9,80,222.16Z" class="color8b8893 svgShape"></path><path fill="#787681" d="M111.31,59.93a164.38,164.38,0,0,1-31.59-21.5Q73.58,43.55,67,48.08a163.82,163.82,0,0,0,19.3,11.85,164.49,164.49,0,0,0,41.11,14.91v37.62c0,23-7.41,45.65-21.42,65.47a144,144,0,0,1-38.54,36.76q6,4,12.5,7.47c20.92-11.26,38.47-26.44,51-44.23,14-19.82,21.42-42.46,21.42-65.47V74.84A164.49,164.49,0,0,1,111.31,59.93Z" class="color787681 svgShape"></path><path fill="#aeadb3" d="M80,229.66a7.6,7.6,0,0,1-3.56-.89C54.51,217,36,200.9,22.8,182.26,7.88,161.16,0,137,0,112.46V74.54a7.5,7.5,0,0,1,5.77-7.29,168.94,168.94,0,0,0,46-18.37A168.57,168.57,0,0,0,74.92,32.67a7.51,7.51,0,0,1,9.72.1,157.25,157.25,0,0,0,30.14,20.51A157.11,157.11,0,0,0,154,67.51a7.5,7.5,0,0,1,5.9,7.33v37.62c0,24.57-7.88,48.7-22.8,69.8C124,200.9,105.41,217,83.51,228.77A7.57,7.57,0,0,1,80,229.66ZM15,80.37v32.09c0,21.45,6.93,42.59,20,61.14,11.12,15.75,26.6,29.51,44.91,40,18.31-10.48,33.79-24.24,44.91-40,13.12-18.55,20-39.69,20-61.14V80.77a172.32,172.32,0,0,1-37.08-14.19,172.33,172.33,0,0,1-28.2-18.45,183.75,183.75,0,0,1-20.3,13.71A183.77,183.77,0,0,1,15,80.37Z" class="coloraeadb3 svgShape"></path><rect width="154.11" height="110.19" x="350.39" y="363.38" fill="#8b8893" rx="30" class="color8b8893 svgShape"></rect><path fill="#787681" d="M474.5,363.38h-21a30,30,0,0,1,30,30v50.19a30,30,0,0,1-30,30h21a30,30,0,0,0,30-30V393.38A30,30,0,0,0,474.5,363.38Z" class="color787681 svgShape"></path><path fill="#3c3b41" d="M69.1,159.44a7.44,7.44,0,0,0,5.3-2.2l43.43-43.42a7.5,7.5,0,1,0-10.61-10.61L69.1,141.33,52.69,124.92a7.5,7.5,0,1,0-10.6,10.61L63.8,157.24A7.44,7.44,0,0,0,69.1,159.44ZM436,262.5a7.5,7.5,0,1,0-7.5-7.5A7.5,7.5,0,0,0,436,262.5Zm-8.56,125.8a17,17,0,0,0-7.5,32.34V440a7.5,7.5,0,0,0,15,0V420.64a17,17,0,0,0-7.5-32.34Zm56-31.4V333.11a49.89,49.89,0,0,0-3.4-18.09,7.44,7.44,0,0,0,1.94-5V164a37.55,37.55,0,0,0-37.5-37.5H159a114.58,114.58,0,0,0,.88-14.11V74.77A7.5,7.5,0,0,0,154,67.44a157.18,157.18,0,0,1-39.23-14.23A157.33,157.33,0,0,1,84.63,32.7a7.5,7.5,0,0,0-9.71-.1A168.57,168.57,0,0,1,51.79,48.81a169,169,0,0,1-46,18.37A7.49,7.49,0,0,0,0,74.47v37.92c0,24.57,7.88,48.7,22.79,69.8Q26.17,187,30,191.48V346a37.55,37.55,0,0,0,37.5,37.5H344.19a37.39,37.39,0,0,0-1.31,9.81V443.5a37.55,37.55,0,0,0,37.5,37.5H474.5A37.55,37.55,0,0,0,512,443.5V393.31A37.57,37.57,0,0,0,483.46,356.9Zm-39-215.4A22.53,22.53,0,0,1,467,164V186a52.61,52.61,0,0,1-44.46-44.45Zm24,191.61v22.7h-82v-22.7a35,35,0,0,1,35-35h12A35,35,0,0,1,468.46,333.11ZM35,173.53C21.93,155,15,133.84,15,112.39V80.3A183.77,183.77,0,0,0,59.34,61.77,183.63,183.63,0,0,0,79.63,48.06a172.85,172.85,0,0,0,28.21,18.45A172.12,172.12,0,0,0,144.92,80.7v31.69c0,21.45-6.94,42.59-20,61.14-11.13,15.75-26.6,29.51-44.91,40C61.64,203,46.17,189.28,35,173.53Zm32.46,195A22.53,22.53,0,0,1,45,346V324A52.61,52.61,0,0,1,89.45,368.5Zm284.61.21a7,7,0,0,0-1.73-.21H104.57A67.62,67.62,0,0,0,45,308.92V206.83A165.74,165.74,0,0,0,76.4,228.7a7.55,7.55,0,0,0,7.11,0c21.9-11.79,40.44-27.87,53.61-46.51a124.63,124.63,0,0,0,19-40.69H407.42A67.62,67.62,0,0,0,467,201.07v95a49.83,49.83,0,0,0-33.54-12.95h-12a50.06,50.06,0,0,0-50,50V356.9A37.56,37.56,0,0,0,352.11,368.71ZM497,443.5A22.53,22.53,0,0,1,474.5,466H380.38a22.53,22.53,0,0,1-22.5-22.5V393.31a22.53,22.53,0,0,1,22.5-22.5H474.5a22.53,22.53,0,0,1,22.5,22.5ZM256,155a100,100,0,1,0,70.71,29.29A99.32,99.32,0,0,0,256,155Zm60.1,160.1A85,85,0,1,1,341,255,84.41,84.41,0,0,1,316.1,315.1ZM76,247.5a7.5,7.5,0,1,0,7.5,7.5A7.49,7.49,0,0,0,76,247.5Zm219.37-37.77a7.5,7.5,0,0,0-7.5-7.5H224.12a7.5,7.5,0,0,0,0,15h22.29a19.47,19.47,0,0,1,17.94,12H224.12a7.5,7.5,0,0,0,0,15h40.23a19.46,19.46,0,0,1-17.94,11.94H224.06l-.4,0-.35,0-.32.05-.41.06-.2.05-.51.14-.08,0-.6.22-.22.11-.43.2-.31.19-.31.19-.27.2c-.11.09-.22.16-.32.25l-.23.2c-.11.1-.22.2-.32.31l-.05,0c-.06.06-.11.13-.16.19a4,4,0,0,0-.28.32c-.08.09-.14.19-.21.28a3.71,3.71,0,0,0-.23.32l-.19.31-.18.32c0,.11-.1.22-.16.33l-.15.33-.12.34-.12.36-.09.34c0,.12-.06.24-.08.37l-.06.37c0,.12,0,.23,0,.36s0,.27,0,.41a2.46,2.46,0,0,0,0,.26s0,0,0,.07,0,.28,0,.43,0,.21,0,.31,0,.25.06.37,0,.25.05.37.05.18.07.27.07.29.12.43a2.09,2.09,0,0,0,.08.23c0,.15.11.3.17.45s.11.23.16.35l.15.31c.06.11.14.22.2.33l.18.29.2.26a4.08,4.08,0,0,0,.25.33l.19.21.32.34,0,0,48.2,46.64a7.5,7.5,0,0,0,10.43-10.78l-34.88-33.75h3.75A34.48,34.48,0,0,0,280,244.18h7.85a7.5,7.5,0,0,0,0-15H280a34.17,34.17,0,0,0-5.2-12h13.05A7.5,7.5,0,0,0,295.37,209.73Z" class="color3c3b41 svgShape"></path></svg></g></svg>