<svg xmlns="http://www.w3.org/2000/svg" viewBox="0 0 500 500"><g id="freepik--Spreadsheets--inject-1"><path d="M333.78,355.56,125.19,338.85a9.94,9.94,0,0,1-9.09-10.67l9.06-113.12A9.93,9.93,0,0,1,135.83,206l208.59,16.7a10,10,0,0,1,9.09,10.67l-9.06,113.13A10,10,0,0,1,333.78,355.56Z" style="fill:#1E40AF"></path><path d="M333.78,355.56,125.19,338.85a9.94,9.94,0,0,1-9.09-10.67l9.06-113.12A9.93,9.93,0,0,1,135.83,206l208.59,16.7a10,10,0,0,1,9.09,10.67l-9.06,113.13A10,10,0,0,1,333.78,355.56Z" style="opacity:0.4"></path><path d="M330.07,355.26l-208.59-16.7a10,10,0,0,1-9.09-10.67l9.06-113.13a10,10,0,0,1,10.67-9.09l208.59,16.7A10,10,0,0,1,349.8,233l-9.06,113.13A10,10,0,0,1,330.07,355.26Z" style="fill:#1E40AF"></path><path d="M338.25,341.45,115.6,323.62a1.65,1.65,0,0,1-1.52-1.77l7.77-97a1.65,1.65,0,0,1,1.77-1.52l222.66,17.83A1.66,1.66,0,0,1,347.8,243l-7.77,97A1.65,1.65,0,0,1,338.25,341.45Z" style="fill:#fff"></path><path d="M136.24,220.81a3.54,3.54,0,0,1-.46,0,5.67,5.67,0,1,1,.46,0Zm0-10.6a4.94,4.94,0,1,0,.39,0Z" style="fill:#fff"></path><path d="M152.64,222.12h-.46a6,6,0,1,1,.46,0Zm0-10.6a4.89,4.89,0,1,0,3.17,8.61,4.84,4.84,0,0,0,1.7-3.33h0a4.89,4.89,0,0,0-4.48-5.26Z" style="fill:#fff"></path><path d="M169,223.44l-.46,0a5.64,5.64,0,1,1,.46,0Zm0-10.6a4.82,4.82,0,1,0,.39,0Z" style="fill:#fff"></path><rect x="173.35" y="228.48" width="10.79" height="43" transform="translate(442.19 91.76) rotate(94.58)" style="fill:#1E40AF"></rect><rect x="267.9" y="250.03" width="10.79" height="43" transform="translate(565.78 20.78) rotate(94.58)" style="fill:#1E40AF"></rect><rect x="218.95" y="260.1" width="10.79" height="43" transform="translate(522.96 80.44) rotate(94.58)" style="fill:#1E40AF;opacity:0.5"></rect><rect x="168.9" y="284.06" width="10.79" height="43" transform="translate(492.79 156.21) rotate(94.58)" style="fill:#1E40AF;opacity:0.5"></rect><rect x="314.62" y="267.76" width="10.79" height="43" transform="translate(633.9 -6.65) rotate(94.58)" style="fill:#1E40AF"></rect><rect x="313.51" y="281.66" width="10.79" height="43" transform="translate(646.55 9.46) rotate(94.58)" style="fill:#1E40AF;opacity:0.5"></rect><rect x="264.56" y="291.72" width="10.79" height="43" transform="translate(603.73 69.12) rotate(94.58)" style="fill:#1E40AF"></rect><path d="M346.7,256.68l0-.49-47.59-3.81,1.19-14.87-.49,0-1.19,14.87-47.34-3.79,1.19-14.87-.5,0-1.19,14.87-47.34-3.79,1.19-14.87-.49,0L203,244.68l-47.34-3.79L156.84,226l-.49,0-1.19,14.87-34.37-2.75,0,.49,34.37,2.75L154,254.75,119.68,252l0,.5L154,255.24l-1.07,13.4-34.37-2.75,0,.49,34.37,2.76-1.07,13.4-34.37-2.75,0,.49L151.78,283l-1.08,13.41-34.36-2.76,0,.5,34.37,2.75-1.08,13.4-34.37-2.75,0,.49,34.36,2.76-1.23,15.41.49,0,1.24-15.42,47.34,3.8-1.24,15.41.5,0,1.23-15.42,47.34,3.79L244,333.9l.49,0,1.23-15.42,47.34,3.79-1.23,15.42.49,0,1.24-15.42,47.58,3.81,0-.49-47.58-3.81,1.07-13.4,47.59,3.81,0-.5L294.7,308l1.07-13.4,47.59,3.81,0-.49-47.59-3.81,1.08-13.41,47.58,3.81,0-.49-47.58-3.81,1.07-13.4,47.59,3.81,0-.5L298,266.27l1.07-13.4ZM250.78,249l-1.07,13.41-47.34-3.79,1.07-13.41Zm-50.63,37.41,1.07-13.4,47.34,3.79-1.07,13.4Zm47.3,4.28-1.08,13.41L199,300.3l1.08-13.4Zm-46.19-18.18,1.07-13.4,47.34,3.79-1.07,13.4Zm-45.65-31.13L203,245.17l-1.07,13.41-47.34-3.79Zm-1.11,13.9,47.34,3.79-1.08,13.4-47.34-3.79Zm-1.12,13.9L200.72,273l-1.07,13.4-47.34-3.79Zm-1.11,13.89,47.34,3.79-1.07,13.41-47.34-3.79Zm-2.18,27.3,1.07-13.4,47.34,3.79-1.07,13.4Zm47.83,3.83L199,300.8l47.34,3.79L245.26,318Zm95.17,7.62L245.75,318l1.08-13.4,47.34,3.79Zm1.12-13.9-47.34-3.79,1.07-13.4,47.34,3.79ZM295.32,294,248,290.24l1.07-13.4,47.34,3.79Zm1.11-13.9-47.34-3.79,1.07-13.4,47.34,3.79Zm1.11-13.89-47.34-3.79L251.28,249l47.34,3.79Z" style="fill:#e0e0e0"></path></g></svg>