<svg id="SvgjsSvg1168" width="288" height="288" xmlns="http://www.w3.org/2000/svg" version="1.1" xmlns:xlink="http://www.w3.org/1999/xlink" xmlns:svgjs="http://svgjs.com/svgjs"><defs id="SvgjsDefs1169"></defs><g id="SvgjsG1170"><svg xmlns="http://www.w3.org/2000/svg" viewBox="0 0 64 64" width="288" height="288"><rect width="40" height="64" x="12" fill="#2563eb" rx="8" class="color93e6e5 svgShape"></rect><path fill="#eff6ff" d="M49,9V54a6,6,0,0,1-6,6H21a6,6,0,0,1-6-6V9a6,6,0,0,1,6-6h3.29a1,1,0,0,1,.94.68l.31.95A2,2,0,0,0,27.44,6h9.12a2,2,0,0,0,1.9-1.37l.31-.94A1,1,0,0,1,39.72,3H43A6,6,0,0,1,49,9Z" class="colorfff svgShape"></path><path fill="#1e40af" d="M32 19v8H12v2.89a1 1 0 01-1.63.77L2 23.77a1 1 0 010-1.54l8.42-6.89a1 1 0 011.63.77V19zM32 37v8H52v2.89a1 1 0 001.63.77l8.42-6.89a1 1 0 000-1.54l-8.42-6.89a1 1 0 00-1.63.77V37z" class="color00bebd svgShape"></path><circle cx="32" cy="32" r="13" fill="#ea9706" class="colorea9706 svgShape"></circle><circle cx="32" cy="32" r="10" fill="#ffac00" class="colorffac00 svgShape"></circle><path fill="#d9d9d9" d="M42,57H22a1,1,0,0,1,0-2H42a1,1,0,0,1,0,2Z" class="colord9d9d9 svgShape"></path><circle cx="45" cy="8" r="1" fill="#d9d9d9" class="colord9d9d9 svgShape"></circle><circle cx="41" cy="8" r="1" fill="#d9d9d9" class="colord9d9d9 svgShape"></circle><path fill="#f3f3f3" d="M32.5,38H31c-3,0-3.9-4-2-4a1,1,0,0,1,1,1,1,1,0,0,0,1,1h1.5a1.5,1.5,0,0,0,0-3h-1a3.5,3.5,0,0,1,0-7H33c3,0,3.94,4,2,4a1,1,0,0,1-1-1,1,1,0,0,0-1-1H31.5a1.5,1.5,0,0,0,0,3h1a3.5,3.5,0,0,1,0,7Z" class="colorf3f3f3 svgShape"></path><path fill="#f3f3f3" d="M32 28a1 1 0 01-1-1V25a1 1 0 012 0v2A1 1 0 0132 28zM32 40a1 1 0 01-1-1V37a1 1 0 012 0v2A1 1 0 0132 40z" class="colorf3f3f3 svgShape"></path></svg></g></svg>