<svg id="SvgjsSvg1001" width="288" height="288" xmlns="http://www.w3.org/2000/svg" version="1.1" xmlns:xlink="http://www.w3.org/1999/xlink" xmlns:svgjs="http://svgjs.com/svgjs"><defs id="SvgjsDefs1002"></defs><g id="SvgjsG1008"><svg xmlns="http://www.w3.org/2000/svg" enable-background="new 0 0 50 50" viewBox="0 0 50 50" width="288" height="288"><path fill="#ff8066" d="M36.99957,5.4834c2.16636-0.63193,3.95853,3.52373,5.05923,5.0035
				c1.07297,1.4425,3.86921,3.64414,3.16027,5.54981c-1.36469,3.66838-7.49853,6.2398-17.97933,13.8192
				c-0.76275,0.5516-1.68063,1.60058-2.82023,1.00081c-1.0354-0.54494-1.6781-1.94914-2.48288-2.78967
				c-2.78111-2.90467-1.89754-1.4136-4.26252-5.67731c-0.40145-0.72375-1.2659-1.61343-0.97442-2.42948
				c0.27981-0.78338,1.49696-1.28761,2.11574-1.72483C37.23345,5.22131,35.48214,5.92604,36.99957,5.4834z" class="colorBFD351 svgShape"></path><path fill="#3b82f6" d="M36.31695,21.22375c-8.67456,5.52108-8.67627,6.2917-9.66788,5.7285
				c-0.43203-0.24538-0.71753-0.7185-1.17816-0.91145c-0.46768-0.19591-1.07277-0.09836-1.51302,0.11901
				c-0.36715,0.18128-0.28383,0.2667-0.62102,0.0641c-0.22883-0.13749-0.43938-0.43084-0.63354-0.61685
				c-0.63198-0.60546-2.03043-2.01806-2.22288-2.87316c-0.0708-0.31461,0.23293-0.57197,0.47695-0.78279
				c1.87135-1.61675,0.76037-3.16487,0.85322-3.41773c0.03172-0.08637,0.41383-0.18999,1.26466-0.79107
				c11.83532-8.3618,10.7914-7.94489,11.40732-7.81635c1.5691,0.32747,2.57489-0.28697,3.5317-1.30272
				c1.29049,1.62294,1.64221,2.64619,2.79677,3.95343c0.10009,0.11332,0.35144,0.29848,0.39763,0.43847
				c0.07478,0.22663,0.0396,0.08879-0.04677,0.31878c-0.23349,0.62172-0.52887,1.04241-0.50125,1.75374
				c0.02697,0.69442,0.26642,1.36645,0.58958,1.98169c0.26943,0.51294-0.66663,1.1936-1.04857,1.4952
				C38.97809,19.53038,37.6519,20.3741,36.31695,21.22375z" class="colorD7D7D7 svgShape"></path><path fill="#ff8066" d="M28.15422 17.42438c-.103-.45052-.1769-.93407-.0109-1.36538.36095-.93787 2.46468-1.74957 3.27821-1.7707 2.25251-.05851 4.4388 3.38841 3.95289 4.88475-.14964.46079-.48377.83474-.81161 1.19144-1.03435 1.12541-2.18934 2.0566-3.89128 1.40871C28.93714 21.11298 28.52269 19.03613 28.15422 17.42438zM35.66049 13.29223c.16337-.42447 1.1155-.79185 1.4837-.80141.98126-.02549 2.01636 1.51083 1.78905 2.21081-.19374.59661-1.15325 1.54807-2.1285 1.17682C35.85742 15.51783 35.51842 13.66136 35.66049 13.29223zM23.75131 21.57703c.16337-.42447 1.1155-.79185 1.4837-.80141.63739-.01656 1.09821.48105 1.45496 1.00366.57993.84955.42581 1.24694-.03323 1.7464-.19653.21383-.40001.42965-.65603.56677-.33554.17971-.74941.20622-1.10514.07081C23.94824 23.80263 23.60925 21.94617 23.75131 21.57703z" class="colorBFD351 svgShape"></path><path fill="#ff8066" d="M23.85883,2.56851c1.56015-1.63045,5.19005,1.07237,6.88317,1.80355
				c4.95954,2.14177,8.65402,0.74169,2.07348,13.39414c-6.44107,12.3843-5.49657,13.00097-7.16465,13.06628
				c-1.16915,0.04576-2.42785-0.84896-3.54507-1.17449c-3.86085-1.12496-2.35011-0.27545-6.5301-2.78544
				c-0.70954-0.42606-1.90302-0.76432-2.05861-1.61678c-0.14937-0.81833,0.6526-1.86358,0.96987-2.55162
				C24.31347,1.3937,22.84347,3.62963,23.85883,2.56851z" class="colorBFD351 svgShape"></path><path fill="#3b82f6" d="M30.94828,16.90541c-4.57069,8.78928-4.17729,9.42284-5.31882,9.43091
				c-0.49684,0.00351-0.98065-0.26347-1.47604-0.20026c-0.50298,0.06418-0.97822,0.4512-1.2508,0.85958
				c-0.22732,0.34057-0.11246,0.37288-0.50577,0.36602c-0.09119-0.00159-1.93234-0.46472-2.5574-0.70958
				c-3.30288-1.29387-0.88188-1.20382-1.5496-3.66943c-0.30247-1.11687-1.01083-1.23425-1.06003-1.51805
				c-0.01941-0.112,0.23737-0.31502,0.6997-1.31741c7.99912-17.3448,4.3735-10.56393,7.28118-13.22184
				c0.65085-0.59494,0.9015-1.31788,1.09686-2.14502c0.70669,0.27851,1.36249,0.61844,2.05649,0.94465
				c3.01269,1.65714,2.91465,0.89704,3.02477,1.56111c0.15479,0.93337-0.02498,1.94647,1.94422,3.1908
				c0.4898,0.3095,0.01947,1.367-0.16049,1.81917C32.43053,14.1592,30.89615,17.00565,30.94828,16.90541z" class="colorD7D7D7 svgShape"></path><path fill="#ff8066" d="M22.16902 17.33238c-1.01579-1.09398-.8821-1.77611.0104-3.02023 1.1403-1.58953 2.25775-2.40412 5.14393-1.01624 2.04821.98492 2.19232 1.91557 1.86573 3.37839-.33307 1.49181-.86772 2.87574-2.66559 3.16562C24.69135 20.13534 23.294 18.54396 22.16902 17.33238zM26.60357 10.0007c-.04757-.30202.13974-.5858.31796-.83423.39552-.55135.72529-.86073 1.45766-.75572.54545.07821 1.62854.54037 1.76337 1.17415.13052.61355-.22471 1.91729-1.25493 2.0834C27.88691 11.82966 26.6651 10.39141 26.60357 10.0007zM20.43232 23.13014c-.07076-.44929.57013-1.24351.88422-1.43589.54372-.33303 1.1916-.13251 1.76186.14171.92701.44577.99223.86697.84442 1.52904-.15074.67518-.39272 1.30154-1.20643 1.43274C21.71566 24.95909 20.49385 23.52085 20.43232 23.13014z" class="colorBFD351 svgShape"></path><path fill="#1e40af" d="M43.57462,43.30275c0,3.24987-0.92901,4.42747-4.41164,4.40145l-26.93503-0.27322
			c-4.17888-0.03032-7.52805-3.95625-7.37625-8.68149c0.13154-4.17888,0.26309-8.36789,0.39463-12.5569
			c0.40235-13.15635-1.03787-8.64243,31.76341-9.9545c2.33733-0.09103,4.4521,1.03209,5.8585,2.87364
			C43.97309,20.53084,44.07378,19.07685,43.57462,43.30275z" class="colorA8A8A8 svgShape"></path><path fill="#581b98" d="M45.36147,35.02478c-2.6399,0.32156-8.86425,0.62449-11.06271-0.88172
			c-2.09198-1.45414-2.11322-4.50265,0.42115-5.58526c1.10107-0.48985,1.56787-0.44662,10.61221-0.76632L45.36147,35.02478z" class="color494949 svgShape"></path><path fill="#ffffff" d="M35.17445,31.17781c-0.08222,0.5515-0.19179,1.17776,0.25221,1.57611
			c0.31858,0.28582,0.79735,0.39533,1.24857,0.36878c1.99453-0.11735,2.56084-2.29435,1.10545-3.08819
			C37.09496,29.66049,35.30748,30.28546,35.17445,31.17781z" class="colorFFF svgShape"></path><path fill="#fff999" d="M14.70124,38.36858c0.57226,0.36568,1.19775,0.64489,1.84482,0.85105
				c8.67681,2.76442,13.36885-9.25642,7.25179-13.38224C15.08575,19.96161,5.42191,32.43892,14.70124,38.36858z" class="colorFFE799 svgShape"></path><path d="M28.41763,8.15998c-1.28333-0.18134-2.16199,1.26796-2.06006,1.88c0.11156,0.71104,1.7076,2.11661,2.57001,1.87
					C29.98544,11.76237,31.54069,8.64477,28.41763,8.15998z M26.84762,9.96003c-0.03003-0.20001,0.12-0.43005,0.27997-0.65002
					c0.46961-0.66039,0.72266-0.70499,1.22003-0.65002c0.56,0.08002,1.44995,0.52002,1.54999,0.98004
					c0.07001,0.31-0.02002,0.85999-0.31,1.27997C28.60981,12.36108,26.90761,10.29602,26.84762,9.96003z"></path><path d="M45.5776,27.78998c0-0.07001-0.02002-0.13-0.07001-0.17999s-0.12-0.07001-0.17999-0.07001l-0.97003,0.03003
					c0.06006-7.39001-0.18994-7.67999-0.91998-8.54999l-0.06-0.08002l-0.00854-0.01013
					c1.0011-0.92499,1.71991-1.82581,2.08447-2.8056c0.8305-2.23227-2.12537-3.94837-4.00879-7.05957
					c-1.91764-3.16874-3.24168-5.02211-6.02325-3.07837c-0.62946-0.44769-1.48682-0.72736-2.47388-1.06635
					c-3.84809-1.26239-5.64843-3.12-7.77002-3.12c-0.62,0-1.12,0.20001-1.5,0.60004L23.5176,2.56
					c-0.39001,0.38-0.39001,0.38-1.46002,2.83002c-0.77997,1.75-2.17999,4.91998-4.76996,10.59998
					c-11.65644,0-12.26525-0.08165-12.5,8.73999l-0.44,14c-0.15638,5.04224,3.44125,9.17769,7.88,9.20001l26.92999,0.27002h0.12
					c3.53998,0,4.79999-1.28003,4.79999-4.89001c0.06-3.02002,0.10999-5.64001,0.15997-7.91998
					C46.53011,35.21792,45.28318,35.96571,45.5776,27.78998z M41.01699,9.32349c1.87602,3.09875,4.66737,4.7463,3.96777,6.62598
					c-0.33258,0.89423-1.00293,1.73248-1.93774,2.59918c-0.44769-0.55469-0.9635-1.03156-1.51941-1.42865
					c-0.00171-0.00128-0.00372-0.00214-0.00543-0.00342c-0.01263-0.05444-0.02209-0.10901-0.0506-0.16321
					c-0.35449-0.6748-0.53809-1.28857-0.56104-1.87549c-0.02537-0.65155,0.25272-1.03271,0.48535-1.65625
					c0.29757-0.79111-0.0308-0.1616-1.78467-2.9375c-2.11243-3.34289-1.21371-1.91115-3.11316-0.99799
					c0.21576-1.17796,0.18035-2.34134-0.67377-3.16815C38.08291,4.77436,39.08967,6.13918,41.01699,9.32349z M36.89761,15.65003
					c-0.79004-0.30005-1.10999-1.99005-1-2.27002c0.09998-0.27002,0.91998-0.63,1.27002-0.64001
					c0.80941,0,1.70022,1.36937,1.52997,1.88C38.52761,15.15003,37.6376,15.93,36.89761,15.65003z M37.1376,12.24
					c-0.40002,0.01001-1.48999,0.40002-1.71002,0.96002c-0.17798,0.45172,0.13474,1.91471,0.79004,2.57001
					c-0.58002,0.01996-1.16003,0.03998-1.73004,0.06c-0.07996-0.11005-0.16998-0.22003-0.25995-0.32001
					c1.72625-3.57817,1.90462-4.71874,2.14124-5.43585c0.65894-0.22729,1.18658-0.63336,1.62518-1.07098
					c1.03866,1.35106,1.92205,3.09936,2.77832,3.88428c0.06299,0.05762,0.17969,0.16504,0.19922,0.20605
					c0,0.00049,0.00439,0.01416,0.01025,0.03174c-0.05606,0.10252-0.59878,1.24895-0.57129,1.97217
					c0.01984,0.4986,0.13934,1.00854,0.3631,1.54639c-0.00208-0.0011-0.00397-0.00269-0.00604-0.00378
					c-0.75-0.42004-1.57001-0.70001-2.41998-0.83002C40.29325,14.48105,38.37519,12.24,37.1376,12.24z M22.50759,5.58997
					c1.03998-2.35999,1.03998-2.35999,1.35999-2.67999L24.03762,2.74c0.27997-0.28998,0.65997-0.44,1.13995-0.44
					c1.99217,0,3.51414,1.71358,7.61005,3.10004C34.36758,5.93,35.5176,6.32001,35.93758,7.35999
					c0.82635,2.05778-1.59629,6.60423-2.44,8.5c-0.57996,0.02002-1.16998,0.04004-1.75,0.04999
					c4.23254-8.24209,0.60794-3.6489-0.10999-8.66998c-0.07001-0.40002-0.14001-0.47998-0.53003-0.58002
					c-1.34045-0.35473-3.08592-1.48534-4.70996-2.10999C26.3276,4.52002,26.25759,4.52002,26.18758,4.56
					c-0.06,0.02997-0.10999,0.09003-0.12,0.15997C25.86758,5.58002,25.61758,6.21003,25.03762,6.74
					c-0.74005,0.67999-1,0.67999-1.13,0.69c-0.48004,0-0.48004,0-2.09003,3.58002c-0.53998,1.20996-1.27002,2.82001-2.26001,4.98999
					c-1.24623,0-1.15139-0.00515-1.70996-0.01001C20.36758,10.44001,21.74758,7.32001,22.50759,5.58997z M27.47762,15.99
					c-0.23285-0.55862-1.03546-0.98795-2.14001-0.26001c-0.44-0.28998-0.89001-0.56-1.37-0.79999
					c0.2428-0.2428,0.55877-0.10443,0.92999-0.28998c0.28905-0.16864,0.07413-0.59043-0.22998-0.45001
					c-0.31197,0.15589-0.894-0.01126-1.17004,0.53998c-0.3816-0.25414-0.62853,0.27585-0.27997,0.41003
					c0.01996,0.01996,0.04999,0.02997,0.07996,0.03998c-0.10233,0.39502-0.02105,0.78895,0.03003,0.84003h-1.60999
					c-0.04004-0.46002,0.20001-0.91003,0.66998-1.56c0.71002-1,1.37-1.62006,2.44-1.62006
					c0.65002,0,1.42999,0.22003,2.39001,0.68005c1.17557,0.56327,1.96601,1.15872,1.82996,2.44995
					C28.94607,15.96998,28.04196,15.99,27.47762,15.99z M23.75759,15.39002c0.38,0.17999,0.73999,0.39996,1.09998,0.62
					c-0.31,0.01001-0.62994,0.01001-0.94995,0C23.74045,15.87074,23.7266,15.6067,23.75759,15.39002z M25.85757,16.00001
					c0.37406-0.19682,0.68052-0.25501,1.02002,0C26.53762,16.00001,26.19759,16.01002,25.85757,16.00001z M27.42757,13.07001
					c-1.01996-0.48999-1.87-0.73004-2.59998-0.73004c-1.92915,0-3.67819,2.53697-3.59998,3.67004c-0.39001,0.01001-0.76001,0-1.13,0
					c0.94995-2.07001,1.63995-3.62,2.16998-4.79004c1.02002-2.26996,1.45001-3.20996,1.64001-3.28998
					c0.28998-0.01001,0.64996-0.07001,1.46997-0.82001C25.97762,6.56,26.2676,5.90998,26.47762,5.12
					c0.32191,0.13347,4.78201,2.34412,4.62994,2.03998c0.23339,0.46678-0.37825,1.95802,2.09003,3.53003
					c0.56272,0.3617-1.71388,4.61832-2.02002,5.22998c-0.10324,0.00646-1.43753,0.04004-1.62,0.04004
					C29.66305,14.48469,28.80697,13.72684,27.42757,13.07001z M43.0776,43.29999c0,3.07001-0.82001,3.90002-3.79999,3.90002
					L12.22762,46.93c-4.05433-0.02373-7.00847-3.91265-6.88-8.16998l0.44-14c0.19995-7.48999,0.20996-7.78003,8.94-7.78003
					c24.12407,0,24.8479-1.34816,27.75,2.44c0.06995,0.09003,0.12994,0.16998,0.19,0.23999
					c0.53998,0.65002,0.73999,1.13,0.67999,7.95001c-6.96851,0.24405-7.6489,0.24305-8.73004,0.72003
					c-1.19995,0.50995-1.95996,1.48999-2.07996,2.69c-0.47128,4.60367,6.0206,4.72465,10.69,4.44
					C43.18758,37.71997,43.1376,40.31,43.0776,43.29999z M33.03762,31.07001c0.09998-1.01001,0.75-1.84003,1.77997-2.28003
					c0.96936-0.43776,1.30994-0.433,10.27002-0.73999l0.01996,6.75C40.4763,35.24158,32.57097,35.69202,33.03762,31.07001z"></path><path d="M37.24758 29.66999c-.84998 0-2.19.58002-2.32996 1.52002-.08002.57001-.19 1.27002.33997 1.75.97765.85533 3.17581.44954 3.54999-1.19C39.04982 30.63877 38.20584 29.66999 37.24758 29.66999zM36.65762 32.87c-.41003.03003-.82001-.09003-1.06-.29999-.33002-.29999-.26001-.81-.17999-1.35003.11525-.71735 1.69907-1.27032 2.23999-.96997C38.89552 30.92734 38.40931 32.76796 36.65762 32.87zM10.72762 30.09998c-2.67164 9.0778 12.51271 15.14173 15.94 3.95001C29.97051 23.23778 13.79141 19.64833 10.72762 30.09998zM25.7076 33.76001c-3.0215 9.85943-16.33596 4.51046-14.02002-3.38C14.36912 21.16588 28.62285 24.23041 25.7076 33.76001z"></path><path d="M21.61025,34.06128c-0.13232-0.02783-0.26709,0.06104-0.29297,0.19727
					c-0.14063,0.71631-0.92773,1.14063-1.59717,1.17627c-0.76953,0.0332-1.52051-0.28174-2.22168-0.63477
					c-0.52222-0.26331-0.93665-0.54858-1.2301-0.91772c1.12152-0.01263,2.24329-0.07672,3.35364-0.20923
					c0.13428-0.01563,0.23145-0.13574,0.21924-0.27051c-0.01221-0.13428-0.11719-0.23535-0.26465-0.22705l-0.30664,0.01953
					c-0.03418,0.00195-0.06641,0.01123-0.0957,0.02539c-1.06091,0.11298-2.1297,0.15167-3.19885,0.15369
					c-0.18976-0.47034-0.23938-1.06006-0.09998-1.86462c0.07513-0.43225,0.1911-0.82574,0.33783-1.18207
					c1.98938-0.1521,2.72668-0.10596,2.98639-0.06451c0.0332,0.05322,0.08203,0.09766,0.13525,0.11768
					c0.11426,0.04297,0.25049,0.00977,0.33203-0.08154c0.06885-0.07715,0.08643-0.21631,0.03955-0.30811
					c-0.07172-0.1402-0.2085-0.40271-3.2373-0.18524c0.49103-0.85022,1.21167-1.3855,2.08252-1.49542
					c0.89453-0.1084,1.71045,0.29248,2.03271,1.0083c0.05615,0.12695,0.20605,0.18213,0.33057,0.12549
					c0.12598-0.05664,0.18213-0.20459,0.12549-0.33057c-0.4126-0.91748-1.4375-1.43799-2.55127-1.29932
					c-0.91748,0.11591-1.9657,0.72247-2.61151,2.0376c-0.55994,0.04596-1.19653,0.1048-1.93634,0.18164
					c-0.13721,0.01416-0.23682,0.13721-0.22266,0.27441c0.01318,0.12842,0.12158,0.22412,0.24805,0.22412
					c0.00879,0,0.01758-0.00049,0.02637-0.00146c0.63202-0.06549,1.18445-0.11719,1.67664-0.159
					c-0.11627,0.32031-0.21875,0.66205-0.2865,1.05255c-0.13867,0.79858-0.1087,1.42523,0.04913,1.9378
					c-0.51007-0.008-1.02081-0.0011-1.52911-0.03448c-0.11914-0.00977-0.25635,0.09521-0.26563,0.2334
					c-0.00879,0.1377,0.09521,0.25635,0.2334,0.26563c0.59271,0.03882,1.18799,0.05316,1.78357,0.05798
					c0.34363,0.59601,0.91223,1.00586,1.61926,1.36194c0.7168,0.36133,1.49072,0.69189,2.31445,0.69189
					c0.05225,0,0.10547-0.00146,0.1582-0.00439c0.87939-0.04639,1.87012-0.604,2.06104-1.57959
					C21.83437,34.219,21.74599,34.08765,21.61025,34.06128z"></path></svg></g></svg>