<svg id="SvgjsSvg1064" width="288" height="288" xmlns="http://www.w3.org/2000/svg" version="1.1" xmlns:xlink="http://www.w3.org/1999/xlink" xmlns:svgjs="http://svgjs.com/svgjs"><defs id="SvgjsDefs1065"></defs><g id="SvgjsG1066"><svg xmlns="http://www.w3.org/2000/svg" viewBox="0 0 512 512" width="288" height="288"><circle cx="106" cy="130" r="7.5"></circle><circle cx="406" cy="130" r="7.5"></circle><path fill="#fdd8ae" d="M300.86,448.51v-32a83.33,83.33,0,0,1,7.76-35.11l17.92-38.59a83.33,83.33,0,0,0,6.54-49.36L318,204.5c-14.83-10.17-28.61-12.64-43.45-22.8l-64.6,22.42a26,26,0,0,0-9.12,18.52,25.19,25.19,0,0,0,7.73,19.14q9.84,9.47,19.67,18.94L202.69,446Z" class="colorfdd8ae svgShape"></path><path fill="#fbbf7d" d="M333.08,293.47,318,204.5c-14.83-10.17-28.62-12.64-43.45-22.8l-9.68,3.36c12.85,7.51,25.09,10.5,38.13,19.44l15.11,89a83.33,83.33,0,0,1-6.54,49.36l-17.92,38.59a83.33,83.33,0,0,0-7.76,35.11v31.6l15,.38v-32a83.33,83.33,0,0,1,7.76-35.11l17.92-38.59A83.33,83.33,0,0,0,333.08,293.47Z" class="colorfbbf7d svgShape"></path><path fill="#fbbf7d" d="M281.59,219.5l-7.07-37.8-64.6,22.42a26,26,0,0,0-9.12,18.52,25.19,25.19,0,0,0,7.73,19.14q9.84,9.47,19.67,18.94Z" class="colorfbbf7d svgShape"></path><rect width="497" height="60" x="7.5" y="7.5" fill="#8b8893" rx="15" class="color8b8893 svgShape"></rect><path fill="#1e40af" d="M67.5,37.5h377a0,0,0,0,1,0,0v152a30,30,0,0,1-30,30H97.5a30,30,0,0,1-30-30V37.5A0,0,0,0,1,67.5,37.5Z" class="color107f47 svgShape"></path><path fill="#3b82f6" d="M384.5,219.5h-257a60,60,0,0,0-60-60v-62a60,60,0,0,0,60-60h257a60,60,0,0,0,60,60v62A60,60,0,0,0,384.5,219.5Z" class="color19ac66 svgShape"></path><path fill="#fed947" d="M256,189.5a75.25,75.25,0,1,1,53.21-22A74.78,74.78,0,0,1,256,189.5Z" class="colorfed947 svgShape"></path><path fill="#fed947" d="M256,189.5a75.25,75.25,0,1,1,53.21-22A74.78,74.78,0,0,1,256,189.5Z" class="colorfed947 svgShape"></path><path fill="#fecc30" d="M309.21,61.07a75.3,75.3,0,0,0-80.37-17c.72,0,1.44-.06,2.16-.06a75.26,75.26,0,0,1,27.16,145.44,75.23,75.23,0,0,0,51-128.4Z" class="colorfecc30 svgShape"></path><path fill="#1e40af" d="M414.5,37.5v152a30,30,0,0,1-30,30h30a30,30,0,0,0,30-30V37.5Z" class="color0d7341 svgShape"></path><path fill="#3b82f6" d="M414.5,159.5v-62l.1-8a59.7,59.7,0,0,0,29.9,8v62a59.66,59.66,0,0,0-30,8Z" class="color17a454 svgShape"></path><path fill="#fdd8ae" d="M201.17,457.15V338.75a81,81,0,0,1,7-32.89l24-54,15.09-54.74a18.73,18.73,0,0,1,20.45-13.6h0a18.73,18.73,0,0,1,16.13,21.37l-8.27,54.82,2,49.39L240.09,449.34Z" class="colorfdd8ae svgShape"></path><path fill="#fbbf7d" d="M267.66,183.55h0a18.64,18.64,0,0,0-9.91,1.42,18.73,18.73,0,0,1,11,19.95l-8.27,54.82h0a17.44,17.44,0,0,0,17.24-14.83l6-40A18.73,18.73,0,0,0,267.66,183.55Z" class="colorfbbf7d svgShape"></path><path fill="#1e40af" d="M177.71,512l0-52.54a16.15,16.15,0,0,1,16.17-16.12l118.66,0a16.16,16.16,0,0,1,16.18,16.12V512" class="coloreb304a svgShape"></path><path fill="#1e40af" d="M328.7,459.49a16.16,16.16,0,0,0-16.18-16.12l-118.66,0h-.13l88.79,0a16.16,16.16,0,0,1,16.18,16.12V512h30Z" class="colore4222e svgShape"></path><path fill="#3c3b41" d="M489.5-.07H22.5A22.52,22.52,0,0,0,0,22.43v30a22.52,22.52,0,0,0,22.5,22.5H60v114.5a37.54,37.54,0,0,0,37.5,37.5h96a32.82,32.82,0,0,0,9.86,20.18l15.88,15.3-17.92,40.33a88,88,0,0,0-7.62,35.94v97.09a23.64,23.64,0,0,0-23.48,23.62l0,45a7.5,7.5,0,0,0,7.5,7.5h0a7.5,7.5,0,0,0,7.5-7.5l0-45a8.56,8.56,0,0,1,2.53-6.09,8.65,8.65,0,0,1,6.14-2.53h0l106.87,0h11.78a8.66,8.66,0,0,1,8.68,8.63l0,45a7.5,7.5,0,0,0,7.5,7.5h0a7.5,7.5,0,0,0,7.5-7.5l0-45a23.68,23.68,0,0,0-23.67-23.62h-4.16V416.46a76.32,76.32,0,0,1,7.06-31.95l17.92-38.59a90.42,90.42,0,0,0,7.13-53.78L329.4,226.93h85.1a37.55,37.55,0,0,0,37.5-37.5V74.93h37.5A22.53,22.53,0,0,0,512,52.43v-30A22.53,22.53,0,0,0,489.5-.07Zm-392,212A22.52,22.52,0,0,1,75,189.43v-22a52.61,52.61,0,0,1,44.45,44.46Zm37.07,0A67.61,67.61,0,0,0,75,152.36V104.5a67.62,67.62,0,0,0,59.57-59.57h76.12a83.17,83.17,0,0,0-13.21,10.75A82.75,82.75,0,0,0,239.9,195.36l-4.57,16.57ZM75,89.39V44.93h44.46A52.62,52.62,0,0,1,75,89.39ZM256,46.44A67.76,67.76,0,0,1,277,178.6a26.21,26.21,0,0,0-28.09,3A67.75,67.75,0,0,1,256,46.44ZM213.73,236.31a17.51,17.51,0,0,1-5.11-9.38H231.2l-5.71,20.7Zm106,103.29-17.92,38.59a91.47,91.47,0,0,0-8.45,38.27v19.33l-84.69,0V338.68A73.1,73.1,0,0,1,215,308.83l24-54a7,7,0,0,0,.38-1.05l15.09-54.75a11.21,11.21,0,0,1,17.24-6.23l.18.12a11.25,11.25,0,0,1,4.51,10.77l-8.27,54.83A7.47,7.47,0,0,0,268,260l2,49.39a7.5,7.5,0,0,0,15-.61l-2-48.68,5-33.15h26.14l11.51,67.75A75.48,75.48,0,0,1,319.73,339.6ZM437,189.43a22.53,22.53,0,0,1-22.5,22.5h-22A52.61,52.61,0,0,1,437,167.47Zm0-37.07a67.61,67.61,0,0,0-59.58,59.57H290.3l.9-6a25.94,25.94,0,0,0-2.52-15.73,83.27,83.27,0,0,0,25.83-17.54,82.72,82.72,0,0,0,0-117,83.1,83.1,0,0,0-13.2-10.75h76.12A67.6,67.6,0,0,0,437,104.5Zm0-63a52.6,52.6,0,0,1-44.46-44.46H437Zm60-37a7.51,7.51,0,0,1-7.5,7.5H452v-15h13.77a7.5,7.5,0,0,0,0-15H46.22a7.5,7.5,0,0,0,0,15H60v15H22.5a7.5,7.5,0,0,1-7.5-7.5v-30a7.5,7.5,0,0,1,7.5-7.5h467a7.51,7.51,0,0,1,7.5,7.5Zm-391,70a7.5,7.5,0,1,0,7.5,7.5A7.5,7.5,0,0,0,106,122.43Zm300,15a7.5,7.5,0,1,0-7.5-7.5A7.5,7.5,0,0,0,406,137.43ZM247.74,113.58H229.25a7.49,7.49,0,0,0-6,12.83l41.6,40.41a7.5,7.5,0,0,0,10.45-10.75L247,128.58h.72A30.72,30.72,0,0,0,277.55,105h6.14a7.5,7.5,0,0,0,0-15h-6.32a30.41,30.41,0,0,0-3.32-7.86h9.64a7.5,7.5,0,0,0,0-15H228.82a7.5,7.5,0,0,0,0,15h18.92A15.64,15.64,0,0,1,261.27,90H228.82a7.5,7.5,0,0,0,0,15h32.86A15.65,15.65,0,0,1,247.74,113.58Z" class="color3c3b41 svgShape"></path></svg></g></svg>